<svg xmlns="http://www.w3.org/2000/svg" xmlns:xlink="http://www.w3.org/1999/xlink" width="170" zoomAndPan="magnify" viewBox="0 0 127.5 127.499994" height="170" preserveAspectRatio="xMidYMid meet" version="1.0"><defs><clipPath id="8b15d76160"><path d="M 39 95 L 88 95 L 88 127 L 39 127 Z M 39 95 " clip-rule="nonzero"/></clipPath><clipPath id="1a6010bd72"><path d="M 51 119 L 56 119 L 56 127 L 51 127 Z M 51 119 " clip-rule="nonzero"/></clipPath><clipPath id="59da064ee0"><path d="M 71 119 L 76 119 L 76 127 L 71 127 Z M 71 119 " clip-rule="nonzero"/></clipPath><clipPath id="6a8f8e8d6b"><path d="M 5.5 103 L 16 103 L 16 127 L 5.5 127 Z M 5.5 103 " clip-rule="nonzero"/></clipPath><clipPath id="ffd6414424"><path d="M 20 89 L 31 89 L 31 127 L 20 127 Z M 20 89 " clip-rule="nonzero"/></clipPath><clipPath id="618fb71a3d"><path d="M 111 103 L 121.75 103 L 121.75 127 L 111 127 Z M 111 103 " clip-rule="nonzero"/></clipPath><clipPath id="44e69e3358"><path d="M 96 89 L 107 89 L 107 127 L 96 127 Z M 96 89 " clip-rule="nonzero"/></clipPath></defs><path fill="#ffffff" d="M 23.664062 13.347656 C 23.863281 13.746094 24.261719 14.042969 24.660156 14.144531 L 53.683594 24.601562 L 53.683594 20.417969 L 26.746094 10.757812 L 23.863281 6.074219 L 28.4375 4.679688 L 53.683594 13.644531 L 53.683594 9.363281 L 29.230469 0.597656 C 28.832031 0.496094 28.335938 0.398438 27.9375 0.597656 L 20.285156 2.988281 C 19.6875 3.1875 19.191406 3.585938 18.992188 4.183594 C 18.792969 4.78125 18.792969 5.378906 19.191406 5.875 Z M 23.664062 13.347656 " fill-opacity="1" fill-rule="nonzero"/><path fill="#ffffff" d="M 107.757812 20.816406 L 112.03125 13.148438 C 112.328125 12.648438 112.328125 12.050781 112.128906 11.453125 C 111.929688 10.855469 111.433594 10.457031 110.9375 10.257812 L 103.183594 7.570312 C 102.785156 7.371094 102.289062 7.46875 101.890625 7.570312 L 73.5625 17.730469 L 73.5625 21.914062 L 102.585938 11.554688 L 107.359375 13.246094 L 104.574219 18.226562 L 73.5625 29.382812 L 73.5625 33.566406 L 106.664062 21.714844 C 107.160156 21.613281 107.558594 21.214844 107.757812 20.816406 Z M 107.757812 20.816406 " fill-opacity="1" fill-rule="nonzero"/><g clip-path="url(#8b15d76160)"><path fill="#ffffff" d="M 80.621094 99.90625 L 70.878906 95.921875 C 70.382812 95.722656 69.886719 95.625 69.386719 95.625 L 57.859375 95.625 C 57.359375 95.625 56.863281 95.722656 56.367188 95.921875 L 46.726562 99.90625 C 46.03125 100.207031 40.164062 102.398438 39.867188 107.476562 C 39.867188 107.476562 39.867188 125.507812 39.867188 125.507812 C 39.867188 126.601562 40.761719 127.5 41.855469 127.5 C 42.949219 127.5 43.84375 126.601562 43.84375 125.507812 L 43.84375 107.675781 C 44.042969 105.085938 48.117188 103.691406 48.117188 103.59375 C 48.117188 103.59375 57.957031 99.507812 57.957031 99.507812 L 69.386719 99.507812 C 69.386719 99.507812 79.230469 103.492188 79.328125 103.59375 C 79.328125 103.59375 83.402344 105.085938 83.601562 107.675781 L 83.601562 125.507812 C 83.601562 126.601562 84.496094 127.5 85.589844 127.5 C 86.683594 127.5 87.578125 126.601562 87.578125 125.507812 C 87.578125 125.507812 87.578125 107.476562 87.578125 107.476562 C 87.082031 102.398438 81.316406 100.207031 80.621094 99.90625 Z M 80.621094 99.90625 " fill-opacity="1" fill-rule="nonzero"/></g><path fill="#ffffff" d="M 61.636719 5.976562 C 61.636719 4.878906 62.53125 3.984375 63.625 3.984375 C 64.71875 3.984375 65.613281 4.878906 65.613281 5.976562 L 65.613281 59.964844 C 67.003906 60.164062 68.394531 60.5625 69.585938 61.160156 L 69.585938 5.976562 C 69.585938 2.6875 66.902344 0 63.625 0 C 60.34375 0 57.660156 2.6875 57.660156 5.976562 L 57.660156 61.160156 C 58.851562 60.5625 60.242188 60.164062 61.636719 59.964844 Z M 61.636719 5.976562 " fill-opacity="1" fill-rule="nonzero"/><path fill="#ffffff" d="M 53.683594 81.679688 C 53.683594 87.15625 58.15625 91.640625 63.625 91.640625 C 69.089844 91.640625 73.5625 87.15625 73.5625 81.679688 L 73.5625 73.710938 C 73.5625 68.230469 69.089844 63.75 63.625 63.75 C 58.15625 63.75 53.683594 68.230469 53.683594 73.710938 Z M 57.660156 73.710938 C 57.660156 70.421875 60.34375 67.734375 63.625 67.734375 C 66.902344 67.734375 69.585938 70.421875 69.585938 73.710938 L 69.585938 81.679688 C 69.585938 84.964844 66.902344 87.65625 63.625 87.65625 C 60.34375 87.65625 57.660156 84.964844 57.660156 81.679688 Z M 57.660156 73.710938 " fill-opacity="1" fill-rule="nonzero"/><g clip-path="url(#1a6010bd72)"><path fill="#ffffff" d="M 53.683594 119.53125 C 52.589844 119.53125 51.695312 120.425781 51.695312 121.523438 L 51.695312 125.507812 C 51.695312 126.601562 52.589844 127.5 53.683594 127.5 C 54.777344 127.5 55.671875 126.601562 55.671875 125.507812 L 55.671875 121.523438 C 55.671875 120.425781 54.777344 119.53125 53.683594 119.53125 Z M 53.683594 119.53125 " fill-opacity="1" fill-rule="nonzero"/></g><g clip-path="url(#59da064ee0)"><path fill="#ffffff" d="M 73.5625 119.53125 C 72.46875 119.53125 71.574219 120.425781 71.574219 121.523438 L 71.574219 125.507812 C 71.574219 126.601562 72.46875 127.5 73.5625 127.5 C 74.65625 127.5 75.550781 126.601562 75.550781 125.507812 L 75.550781 121.523438 C 75.550781 120.425781 74.65625 119.53125 73.5625 119.53125 Z M 73.5625 119.53125 " fill-opacity="1" fill-rule="nonzero"/></g><g clip-path="url(#6a8f8e8d6b)"><path fill="#ffffff" d="M 12.730469 104.6875 C 12.433594 103.992188 11.738281 103.59375 10.941406 103.59375 C 10.148438 103.59375 9.550781 103.992188 9.152344 104.6875 L 6.171875 110.664062 C 5.675781 111.660156 6.070312 112.855469 7.066406 113.355469 C 7.660156 113.652344 8.359375 113.652344 8.953125 113.253906 L 8.953125 125.507812 C 8.953125 126.601562 9.847656 127.5 10.941406 127.5 C 12.035156 127.5 12.929688 126.601562 12.929688 125.507812 L 12.929688 113.253906 C 13.226562 113.453125 13.527344 113.554688 13.925781 113.554688 C 15.414062 113.554688 16.308594 111.960938 15.714844 110.664062 Z M 12.730469 104.6875 " fill-opacity="1" fill-rule="nonzero"/></g><g clip-path="url(#ffd6414424)"><path fill="#ffffff" d="M 27.640625 90.742188 C 27.34375 90.046875 26.648438 89.648438 25.851562 89.648438 C 25.058594 89.648438 24.460938 90.046875 24.0625 90.742188 L 21.082031 96.71875 C 20.582031 97.714844 20.980469 98.910156 21.976562 99.410156 C 22.570312 99.707031 23.265625 99.707031 23.863281 99.308594 L 23.863281 125.507812 C 23.863281 126.601562 24.757812 127.5 25.851562 127.5 C 26.945312 127.5 27.839844 126.601562 27.839844 125.507812 L 27.839844 99.308594 C 28.136719 99.507812 28.4375 99.609375 28.832031 99.609375 C 30.324219 99.609375 31.21875 98.015625 30.621094 96.71875 Z M 27.640625 90.742188 " fill-opacity="1" fill-rule="nonzero"/></g><g clip-path="url(#618fb71a3d)"><path fill="#ffffff" d="M 121.074219 110.664062 L 118.09375 104.6875 C 117.796875 103.992188 117.101562 103.59375 116.304688 103.59375 C 115.507812 103.59375 114.914062 103.992188 114.515625 104.6875 L 111.535156 110.664062 C 110.839844 111.960938 111.832031 113.554688 113.324219 113.554688 C 113.71875 113.554688 114.019531 113.453125 114.316406 113.253906 L 114.316406 125.507812 C 114.316406 126.601562 115.210938 127.5 116.304688 127.5 C 117.398438 127.5 118.292969 126.601562 118.292969 125.507812 L 118.292969 113.253906 C 118.890625 113.554688 119.585938 113.652344 120.179688 113.355469 C 121.175781 112.855469 121.574219 111.660156 121.074219 110.664062 Z M 121.074219 110.664062 " fill-opacity="1" fill-rule="nonzero"/></g><g clip-path="url(#44e69e3358)"><path fill="#ffffff" d="M 103.183594 90.742188 C 102.886719 90.046875 102.191406 89.648438 101.394531 89.648438 C 100.601562 89.648438 100.003906 90.046875 99.605469 90.742188 L 96.625 96.71875 C 95.929688 98.015625 96.921875 99.609375 98.414062 99.609375 C 98.8125 99.609375 99.109375 99.507812 99.40625 99.308594 L 99.40625 125.507812 C 99.40625 126.601562 100.300781 127.5 101.394531 127.5 C 102.488281 127.5 103.382812 126.601562 103.382812 125.507812 L 103.382812 99.308594 C 103.980469 99.609375 104.675781 99.707031 105.273438 99.410156 C 106.265625 98.910156 106.664062 97.714844 106.167969 96.71875 Z M 103.183594 90.742188 " fill-opacity="1" fill-rule="nonzero"/></g><path fill="#ffffff" d="M 15.910156 48.609375 C 15.910156 48.609375 23.265625 52.992188 23.265625 52.992188 C 23.664062 53.289062 24.261719 53.289062 24.757812 53.191406 L 53.683594 46.117188 L 53.683594 42.035156 L 24.558594 49.207031 L 19.589844 46.21875 L 22.570312 41.335938 L 53.683594 33.667969 L 53.683594 29.582031 L 20.882812 37.75 C 20.386719 37.851562 19.886719 38.25 19.6875 38.648438 L 15.316406 45.917969 C 15.015625 46.417969 14.917969 46.914062 15.117188 47.414062 C 15.316406 47.910156 15.414062 48.308594 15.910156 48.609375 Z M 15.910156 48.609375 " fill-opacity="1" fill-rule="nonzero"/><path fill="#ffffff" d="M 103.78125 52.09375 C 103.582031 51.695312 103.183594 51.398438 102.785156 51.199219 L 73.5625 40.242188 L 73.5625 44.523438 L 100.699219 54.785156 L 103.484375 59.765625 L 99.007812 61.257812 L 73.5625 51.496094 L 73.5625 55.78125 C 73.5625 55.78125 98.3125 65.144531 98.3125 65.144531 C 98.710938 65.34375 99.207031 65.34375 99.605469 65.144531 L 106.960938 62.652344 C 107.558594 62.453125 107.957031 62.054688 108.152344 61.457031 C 108.351562 60.859375 108.351562 60.261719 108.054688 59.765625 Z M 103.78125 52.09375 " fill-opacity="1" fill-rule="nonzero"/></svg>