<svg xmlns="http://www.w3.org/2000/svg" xmlns:xlink="http://www.w3.org/1999/xlink" width="170" zoomAndPan="magnify" viewBox="0 0 127.5 127.499994" height="170" preserveAspectRatio="xMidYMid meet" version="1.0"><defs><clipPath id="1612fb0070"><path d="M 0 0 L 127 0 L 127 127 L 0 127 Z M 0 0 " clip-rule="nonzero"/></clipPath></defs><g clip-path="url(#1612fb0070)"><path fill="#ffffff" d="M 125.109375 58.320312 C 123.613281 56.925781 121.523438 56.230469 119.429688 56.429688 C 116.144531 56.726562 112.65625 57.125 109.171875 57.324219 C 108.074219 49.65625 105.085938 42.382812 100.304688 36.109375 C 103.09375 33.71875 105.683594 31.625 108.273438 29.433594 C 109.867188 28.140625 110.863281 26.148438 110.964844 24.15625 C 111.0625 22.0625 110.265625 20.070312 108.773438 18.578125 C 107.277344 17.082031 105.285156 16.285156 103.195312 16.386719 C 101.101562 16.484375 99.210938 17.480469 97.914062 19.074219 C 95.824219 21.664062 93.632812 24.355469 91.242188 27.042969 C 85.066406 22.363281 77.792969 19.375 70.125 18.277344 C 70.421875 14.691406 70.722656 11.207031 71.019531 7.917969 C 71.21875 5.828125 70.523438 3.835938 69.128906 2.242188 C 67.832031 0.945312 65.839844 0.0507812 63.75 0.0507812 C 61.65625 0.0507812 59.664062 0.945312 58.269531 2.441406 C 56.875 3.933594 56.179688 6.027344 56.378906 8.117188 C 56.675781 11.40625 57.074219 14.890625 57.273438 18.476562 C 49.605469 19.574219 42.433594 22.460938 36.257812 27.144531 C 33.171875 23.558594 30.78125 20.667969 29.1875 18.777344 C 27.890625 17.28125 26.097656 16.386719 24.105469 16.285156 C 22.113281 16.1875 20.222656 16.984375 18.828125 18.277344 L 18.128906 18.976562 C 16.734375 20.371094 16.039062 22.261719 16.136719 24.253906 C 16.238281 26.246094 17.132812 28.039062 18.628906 29.335938 C 20.519531 30.828125 23.40625 33.320312 26.894531 36.308594 C 22.210938 42.484375 19.222656 49.65625 18.128906 57.226562 C 14.542969 56.925781 11.058594 56.628906 7.769531 56.328125 C 5.679688 56.128906 3.6875 56.828125 2.09375 58.222656 C 0.898438 59.714844 0 61.707031 0 63.800781 C 0 65.890625 0.898438 67.882812 2.390625 69.277344 C 3.886719 70.671875 5.976562 71.371094 8.070312 71.171875 C 11.355469 70.871094 14.742188 70.574219 18.429688 70.273438 C 19.523438 77.945312 22.414062 85.117188 27.09375 91.292969 C 23.609375 94.28125 20.71875 96.671875 18.925781 98.164062 C 17.433594 99.460938 16.535156 101.253906 16.4375 103.246094 C 16.335938 105.238281 17.132812 107.128906 18.429688 108.523438 L 19.027344 109.121094 C 20.421875 110.515625 22.3125 111.214844 24.304688 111.113281 C 26.296875 111.015625 28.089844 110.117188 29.386719 108.625 C 30.878906 106.832031 33.269531 103.941406 36.257812 100.457031 C 42.433594 105.136719 49.605469 108.125 57.273438 109.222656 C 56.976562 112.808594 56.777344 116.195312 56.378906 119.382812 C 56.179688 121.472656 56.875 123.464844 58.269531 125.058594 C 59.664062 126.554688 61.65625 127.449219 63.75 127.449219 C 65.839844 127.449219 67.832031 126.554688 69.226562 125.058594 C 70.621094 123.566406 71.320312 121.472656 71.121094 119.382812 C 70.820312 116.195312 70.523438 112.707031 70.222656 109.222656 C 77.894531 108.125 85.164062 105.136719 91.339844 100.355469 C 93.632812 103.046875 95.824219 105.636719 97.914062 108.226562 C 99.210938 109.820312 101.203125 110.816406 103.195312 110.914062 C 105.285156 111.015625 107.277344 110.21875 108.773438 108.722656 C 110.265625 107.230469 111.0625 105.238281 110.964844 103.144531 C 110.863281 101.054688 109.867188 99.160156 108.273438 97.867188 C 105.683594 95.773438 103.09375 93.582031 100.40625 91.292969 C 105.085938 85.015625 108.074219 77.746094 109.171875 70.074219 C 112.757812 70.375 116.144531 70.671875 119.429688 70.972656 C 121.523438 71.171875 123.515625 70.472656 125.109375 69.078125 C 126.601562 67.683594 127.5 65.691406 127.5 63.601562 C 127.5 61.507812 126.601562 59.714844 125.109375 58.320312 Z M 122.417969 66.289062 C 121.722656 66.886719 120.824219 67.1875 119.828125 67.085938 C 115.84375 66.6875 111.859375 66.289062 107.578125 65.992188 C 106.480469 65.890625 105.585938 66.6875 105.484375 67.785156 C 104.6875 76.050781 101.5 83.921875 96.222656 90.394531 C 95.523438 91.191406 95.625 92.488281 96.421875 93.183594 C 99.707031 95.972656 102.796875 98.5625 105.785156 101.054688 C 106.480469 101.652344 106.980469 102.546875 106.980469 103.445312 C 106.980469 104.441406 106.679688 105.335938 105.984375 106.035156 C 105.285156 106.730469 104.390625 107.03125 103.394531 107.03125 C 102.398438 107.03125 101.601562 106.53125 101.003906 105.835938 C 98.511719 102.746094 95.921875 99.757812 93.132812 96.472656 C 92.4375 95.675781 91.140625 95.574219 90.34375 96.273438 C 83.96875 101.550781 76.199219 104.839844 67.832031 105.636719 C 66.738281 105.734375 65.941406 106.730469 66.039062 107.726562 C 66.339844 112.011719 66.636719 116.09375 67.035156 119.878906 C 67.136719 120.875 66.835938 121.773438 66.140625 122.46875 C 65.441406 123.167969 64.546875 123.566406 63.648438 123.566406 C 62.753906 123.566406 61.757812 123.167969 61.160156 122.46875 C 60.460938 121.773438 60.164062 120.875 60.261719 119.878906 C 60.660156 116.09375 60.960938 112.011719 61.257812 107.726562 C 61.359375 106.632812 60.5625 105.734375 59.464844 105.636719 C 51.199219 104.839844 43.527344 101.652344 37.054688 96.371094 C 36.65625 96.074219 36.257812 95.875 35.757812 95.875 C 35.160156 95.875 34.664062 96.074219 34.265625 96.570312 C 30.578125 100.753906 27.789062 104.140625 26.097656 106.234375 C 25.597656 106.929688 24.800781 107.230469 23.90625 107.328125 C 23.109375 107.429688 22.210938 107.03125 21.613281 106.433594 L 20.917969 105.835938 C 20.320312 105.238281 20.019531 104.441406 20.019531 103.542969 C 20.019531 102.648438 20.417969 101.949219 21.117188 101.351562 C 23.207031 99.660156 26.59375 96.769531 30.777344 93.085938 C 31.574219 92.386719 31.675781 91.191406 30.976562 90.296875 C 25.796875 83.921875 22.609375 76.152344 21.8125 67.984375 C 21.714844 66.886719 20.816406 66.089844 19.722656 66.191406 C 15.339844 66.488281 11.253906 66.789062 7.371094 67.1875 C 6.375 67.285156 5.476562 66.988281 4.78125 66.289062 C 4.382812 65.691406 3.984375 64.796875 3.984375 63.800781 C 3.984375 62.804688 4.382812 61.90625 5.082031 61.308594 C 5.777344 60.710938 6.675781 60.3125 7.671875 60.414062 C 11.554688 60.8125 15.738281 61.109375 20.019531 61.410156 C 21.117188 61.507812 22.011719 60.710938 22.113281 59.617188 C 22.910156 51.449219 26.195312 43.777344 31.375 37.402344 C 32.074219 36.605469 31.972656 35.3125 31.175781 34.613281 C 26.894531 30.929688 23.507812 28.039062 21.417969 26.246094 C 20.71875 25.75 20.421875 24.953125 20.320312 24.054688 C 20.320312 23.160156 20.617188 22.363281 21.214844 21.765625 L 21.914062 21.066406 C 22.511719 20.46875 23.308594 20.171875 24.203125 20.171875 C 25.101562 20.171875 25.796875 20.570312 26.394531 21.265625 C 28.1875 23.359375 30.976562 26.84375 34.765625 31.128906 C 35.460938 31.925781 36.65625 32.023438 37.550781 31.328125 C 43.925781 26.046875 51.695312 22.859375 59.964844 22.164062 C 61.058594 22.0625 61.855469 21.066406 61.757812 20.070312 C 61.457031 15.789062 61.058594 11.605469 60.660156 7.621094 C 60.5625 6.625 60.859375 5.726562 61.457031 5.03125 C 61.855469 4.433594 62.753906 4.035156 63.75 4.035156 C 64.746094 4.035156 65.640625 4.433594 66.238281 5.128906 C 66.835938 5.828125 67.136719 6.722656 67.035156 7.71875 C 66.636719 11.703125 66.238281 15.789062 65.941406 20.171875 C 65.84375 21.265625 66.636719 22.164062 67.734375 22.261719 C 76.003906 23.058594 83.769531 26.246094 90.246094 31.527344 C 91.042969 32.222656 92.335938 32.125 93.035156 31.328125 C 95.824219 28.039062 98.511719 24.851562 101.003906 21.765625 C 101.601562 21.066406 102.496094 20.570312 103.394531 20.570312 C 104.390625 20.46875 105.289062 20.867188 105.984375 21.566406 C 106.679688 22.261719 106.980469 23.160156 106.980469 24.15625 C 106.980469 25.152344 106.480469 25.949219 105.785156 26.546875 C 102.699219 29.035156 99.609375 31.625 96.222656 34.515625 C 95.425781 35.210938 95.328125 36.507812 96.023438 37.304688 C 101.304688 43.777344 104.589844 51.546875 105.386719 59.816406 C 105.488281 60.910156 106.382812 61.707031 107.480469 61.609375 C 111.761719 61.308594 115.847656 60.910156 119.730469 60.511719 C 120.726562 60.414062 121.625 60.710938 122.320312 61.308594 C 123.019531 61.90625 123.417969 62.804688 123.417969 63.800781 C 123.417969 64.796875 123.117188 65.691406 122.417969 66.289062 Z M 122.417969 66.289062 " fill-opacity="1" fill-rule="nonzero"/></g><path fill="#ffffff" d="M 63.75 39.894531 C 67.632812 39.894531 70.722656 36.804688 70.722656 32.921875 C 70.722656 29.035156 67.632812 25.949219 63.75 25.949219 C 59.863281 25.949219 56.777344 29.035156 56.777344 32.921875 C 56.777344 36.804688 59.863281 39.894531 63.75 39.894531 Z M 63.75 29.933594 C 65.441406 29.933594 66.738281 31.226562 66.738281 32.921875 C 66.738281 34.613281 65.441406 35.910156 63.75 35.910156 C 62.054688 35.910156 60.761719 34.613281 60.761719 32.921875 C 60.761719 31.226562 62.054688 29.933594 63.75 29.933594 Z M 63.75 29.933594 " fill-opacity="1" fill-rule="nonzero"/><path fill="#ffffff" d="M 87.65625 40.890625 C 87.65625 37.601562 84.964844 34.914062 81.679688 34.914062 C 78.390625 34.914062 75.703125 37.601562 75.703125 40.890625 C 75.703125 44.175781 78.390625 46.867188 81.679688 46.867188 C 84.964844 46.867188 87.65625 44.175781 87.65625 40.890625 Z M 81.679688 42.882812 C 80.582031 42.882812 79.6875 41.984375 79.6875 40.890625 C 79.6875 39.792969 80.582031 38.898438 81.679688 38.898438 C 82.773438 38.898438 83.671875 39.792969 83.671875 40.890625 C 83.671875 41.984375 82.773438 42.882812 81.679688 42.882812 Z M 81.679688 42.882812 " fill-opacity="1" fill-rule="nonzero"/><path fill="#ffffff" d="M 43.828125 78.742188 C 39.941406 78.742188 36.855469 81.828125 36.855469 85.714844 C 36.855469 89.597656 39.941406 92.6875 43.828125 92.6875 C 47.710938 92.6875 50.800781 89.597656 50.800781 85.714844 C 50.800781 81.828125 47.710938 78.742188 43.828125 78.742188 Z M 43.828125 88.703125 C 42.132812 88.703125 40.839844 87.40625 40.839844 85.714844 C 40.839844 84.019531 42.132812 82.726562 43.828125 82.726562 C 45.519531 82.726562 46.816406 84.019531 46.816406 85.714844 C 46.816406 87.40625 45.519531 88.703125 43.828125 88.703125 Z M 43.828125 88.703125 " fill-opacity="1" fill-rule="nonzero"/><path fill="#ffffff" d="M 92.636719 53.839844 C 88.75 53.839844 85.664062 56.925781 85.664062 60.8125 C 85.664062 64.695312 88.75 67.785156 92.636719 67.785156 C 96.519531 67.785156 99.609375 64.695312 99.609375 60.8125 C 99.609375 56.925781 96.519531 53.839844 92.636719 53.839844 Z M 92.636719 63.800781 C 90.941406 63.800781 89.648438 62.503906 89.648438 60.8125 C 89.648438 59.117188 90.941406 57.824219 92.636719 57.824219 C 94.328125 57.824219 95.625 59.117188 95.625 60.8125 C 95.625 62.503906 94.328125 63.800781 92.636719 63.800781 Z M 92.636719 63.800781 " fill-opacity="1" fill-rule="nonzero"/><path fill="#ffffff" d="M 55.78125 56.828125 C 59.664062 56.828125 62.753906 53.738281 62.753906 49.855469 C 62.753906 45.96875 59.664062 42.882812 55.78125 42.882812 C 51.894531 42.882812 48.808594 45.96875 48.808594 49.855469 C 48.808594 53.738281 51.894531 56.828125 55.78125 56.828125 Z M 55.78125 46.867188 C 57.472656 46.867188 58.769531 48.160156 58.769531 49.855469 C 58.769531 51.546875 57.472656 52.84375 55.78125 52.84375 C 54.085938 52.84375 52.792969 51.546875 52.792969 49.855469 C 52.792969 48.160156 54.085938 46.867188 55.78125 46.867188 Z M 55.78125 46.867188 " fill-opacity="1" fill-rule="nonzero"/><path fill="#ffffff" d="M 63.75 89.699219 C 60.460938 89.699219 57.773438 92.386719 57.773438 95.675781 C 57.773438 98.960938 60.460938 101.652344 63.75 101.652344 C 67.035156 101.652344 69.726562 98.960938 69.726562 95.675781 C 69.726562 92.386719 67.035156 89.699219 63.75 89.699219 Z M 63.75 97.667969 C 62.652344 97.667969 61.757812 96.769531 61.757812 95.675781 C 61.757812 94.578125 62.652344 93.683594 63.75 93.683594 C 64.84375 93.683594 65.742188 94.578125 65.742188 95.675781 C 65.742188 96.769531 64.84375 97.667969 63.75 97.667969 Z M 63.75 97.667969 " fill-opacity="1" fill-rule="nonzero"/><path fill="#ffffff" d="M 91.640625 72.765625 C 88.351562 72.765625 85.664062 75.453125 85.664062 78.742188 C 85.664062 82.027344 88.351562 84.71875 91.640625 84.71875 C 94.925781 84.71875 97.617188 82.027344 97.617188 78.742188 C 97.617188 75.453125 94.925781 72.765625 91.640625 72.765625 Z M 91.640625 80.734375 C 90.542969 80.734375 89.648438 79.835938 89.648438 78.742188 C 89.648438 77.644531 90.542969 76.75 91.640625 76.75 C 92.734375 76.75 93.632812 77.644531 93.632812 78.742188 C 93.632812 79.835938 92.734375 80.734375 91.640625 80.734375 Z M 91.640625 80.734375 " fill-opacity="1" fill-rule="nonzero"/><path fill="#ffffff" d="M 61.757812 69.777344 C 61.757812 65.890625 58.667969 62.804688 54.785156 62.804688 C 50.898438 62.804688 47.8125 65.890625 47.8125 69.777344 C 47.8125 73.660156 50.898438 76.75 54.785156 76.75 C 58.667969 76.75 61.757812 73.660156 61.757812 69.777344 Z M 54.785156 72.765625 C 53.089844 72.765625 51.796875 71.46875 51.796875 69.777344 C 51.796875 68.082031 53.089844 66.789062 54.785156 66.789062 C 56.476562 66.789062 57.773438 68.082031 57.773438 69.777344 C 57.773438 71.46875 56.476562 72.765625 54.785156 72.765625 Z M 54.785156 72.765625 " fill-opacity="1" fill-rule="nonzero"/><path fill="#ffffff" d="M 73.710938 72.765625 C 70.421875 72.765625 67.734375 75.453125 67.734375 78.742188 C 67.734375 82.027344 70.421875 84.71875 73.710938 84.71875 C 76.996094 84.71875 79.6875 82.027344 79.6875 78.742188 C 79.6875 75.453125 76.996094 72.765625 73.710938 72.765625 Z M 73.710938 80.734375 C 72.613281 80.734375 71.71875 79.835938 71.71875 78.742188 C 71.71875 77.644531 72.613281 76.75 73.710938 76.75 C 74.804688 76.75 75.703125 77.644531 75.703125 78.742188 C 75.703125 79.835938 74.804688 80.734375 73.710938 80.734375 Z M 73.710938 80.734375 " fill-opacity="1" fill-rule="nonzero"/><path fill="#ffffff" d="M 73.710938 52.84375 C 70.421875 52.84375 67.734375 55.53125 67.734375 58.820312 C 67.734375 62.105469 70.421875 64.796875 73.710938 64.796875 C 76.996094 64.796875 79.6875 62.105469 79.6875 58.820312 C 79.6875 55.53125 76.996094 52.84375 73.710938 52.84375 Z M 73.710938 60.8125 C 72.613281 60.8125 71.71875 59.914062 71.71875 58.820312 C 71.71875 57.722656 72.613281 56.828125 73.710938 56.828125 C 74.804688 56.828125 75.703125 57.722656 75.703125 58.820312 C 75.703125 59.914062 74.804688 60.8125 73.710938 60.8125 Z M 73.710938 60.8125 " fill-opacity="1" fill-rule="nonzero"/><path fill="#ffffff" d="M 35.859375 54.835938 C 39.742188 54.835938 42.832031 51.746094 42.832031 47.863281 C 42.832031 43.976562 39.742188 40.890625 35.859375 40.890625 C 31.972656 40.890625 28.886719 43.976562 28.886719 47.863281 C 28.886719 51.746094 31.972656 54.835938 35.859375 54.835938 Z M 35.859375 44.875 C 37.550781 44.875 38.847656 46.167969 38.847656 47.863281 C 38.847656 49.554688 37.550781 50.851562 35.859375 50.851562 C 34.164062 50.851562 32.871094 49.554688 32.871094 47.863281 C 32.871094 46.167969 34.164062 44.875 35.859375 44.875 Z M 35.859375 44.875 " fill-opacity="1" fill-rule="nonzero"/><path fill="#ffffff" d="M 40.839844 65.792969 C 40.839844 62.503906 38.148438 59.816406 34.863281 59.816406 C 31.574219 59.816406 28.886719 62.503906 28.886719 65.792969 C 28.886719 69.078125 31.574219 71.769531 34.863281 71.769531 C 38.148438 71.769531 40.839844 69.078125 40.839844 65.792969 Z M 34.863281 67.785156 C 33.769531 67.785156 32.871094 66.886719 32.871094 65.792969 C 32.871094 64.695312 33.769531 63.800781 34.863281 63.800781 C 35.957031 63.800781 36.855469 64.695312 36.855469 65.792969 C 36.855469 66.886719 35.957031 67.785156 34.863281 67.785156 Z M 34.863281 67.785156 " fill-opacity="1" fill-rule="nonzero"/></svg>