<svg xmlns="http://www.w3.org/2000/svg" xmlns:xlink="http://www.w3.org/1999/xlink" width="170" zoomAndPan="magnify" viewBox="0 0 127.5 127.499994" height="170" preserveAspectRatio="xMidYMid meet" version="1.0"><defs><clipPath id="e35784dfbe"><path d="M 0 0 L 127 0 L 127 127 L 0 127 Z M 0 0 " clip-rule="nonzero"/></clipPath></defs><g clip-path="url(#e35784dfbe)"><path fill="#ffffff" d="M 126.011719 59.585938 L 107.375 41.144531 L 107.375 18.539062 C 107.375 16.257812 105.589844 14.476562 103.40625 14.476562 L 95.476562 14.476562 C 93.296875 14.476562 91.511719 16.359375 91.511719 18.539062 L 91.511719 25.480469 L 68.011719 2.28125 C 65.632812 0 61.867188 0 59.585938 2.28125 L 1.488281 59.585938 C 0.398438 60.675781 0 62.261719 0.59375 63.652344 C 1.191406 65.136719 2.578125 66.03125 4.261719 66.03125 L 5.253906 66.03125 C 5.253906 66.03125 12.195312 66.03125 12.195312 66.03125 L 12.195312 121.550781 C 12.195312 124.824219 14.972656 127.5 18.339844 127.5 L 109.160156 127.5 C 112.429688 127.5 115.304688 124.824219 115.304688 121.550781 L 115.304688 66.03125 C 115.304688 66.03125 122.246094 66.03125 122.246094 66.03125 L 123.136719 66.03125 C 124.824219 66.03125 126.308594 65.136719 126.90625 63.652344 C 127.5 62.261719 127.203125 60.675781 126.011719 59.585938 Z M 95.476562 18.539062 L 103.40625 18.539062 L 103.40625 37.277344 L 95.476562 29.445312 Z M 75.648438 123.535156 L 51.851562 123.535156 L 51.851562 95.773438 C 51.851562 94.683594 52.746094 93.789062 53.835938 93.789062 L 73.664062 93.789062 C 74.753906 93.789062 75.648438 94.683594 75.648438 95.773438 Z M 111.339844 121.550781 C 111.339844 122.640625 110.347656 123.535156 109.160156 123.535156 L 79.613281 123.535156 L 79.613281 95.773438 C 79.613281 92.5 76.9375 89.824219 73.664062 89.824219 L 53.835938 89.824219 C 50.5625 89.824219 47.886719 92.5 47.886719 95.773438 L 47.886719 123.535156 L 18.339844 123.535156 C 17.152344 123.535156 16.160156 122.640625 16.160156 121.550781 L 16.160156 66.03125 L 24.09375 66.03125 C 25.183594 66.03125 26.074219 65.136719 26.074219 64.046875 C 26.074219 62.957031 25.183594 62.066406 24.09375 62.066406 L 4.5625 62.066406 L 62.261719 5.15625 C 63.054688 4.363281 64.34375 4.363281 65.136719 5.15625 L 122.9375 62.066406 L 104.398438 62.066406 C 103.308594 62.066406 102.417969 62.957031 102.417969 64.046875 C 102.417969 65.136719 103.308594 66.03125 104.398438 66.03125 L 111.339844 66.03125 Z M 111.339844 121.550781 " fill-opacity="1" fill-rule="nonzero"/></g><path fill="#ffffff" d="M 63.75 54.132812 C 58.296875 54.132812 53.835938 58.59375 53.835938 64.046875 C 53.835938 69.5 58.296875 73.960938 63.75 73.960938 C 69.203125 73.960938 73.664062 69.5 73.664062 64.046875 C 73.664062 58.59375 69.203125 54.132812 63.75 54.132812 Z M 63.75 69.996094 C 60.476562 69.996094 57.800781 67.320312 57.800781 64.046875 C 57.800781 60.777344 60.476562 58.097656 63.75 58.097656 C 67.023438 58.097656 69.699219 60.777344 69.699219 64.046875 C 69.699219 67.320312 67.023438 69.996094 63.75 69.996094 Z M 63.75 69.996094 " fill-opacity="1" fill-rule="nonzero"/><path fill="#ffffff" d="M 61.765625 37.277344 L 65.734375 37.277344 C 66.824219 37.277344 67.714844 36.386719 67.714844 35.296875 C 67.714844 34.203125 66.824219 33.3125 65.734375 33.3125 L 61.765625 33.3125 C 60.675781 33.3125 59.785156 34.203125 59.785156 35.296875 C 59.785156 36.386719 60.675781 37.277344 61.765625 37.277344 Z M 61.765625 37.277344 " fill-opacity="1" fill-rule="nonzero"/><path fill="#ffffff" d="M 34.007812 107.671875 L 30.039062 107.671875 C 28.949219 107.671875 28.058594 108.5625 28.058594 109.652344 C 28.058594 110.746094 28.949219 111.636719 30.039062 111.636719 L 34.007812 111.636719 C 35.097656 111.636719 35.988281 110.746094 35.988281 109.652344 C 35.988281 108.5625 35.097656 107.671875 34.007812 107.671875 Z M 34.007812 107.671875 " fill-opacity="1" fill-rule="nonzero"/><path fill="#ffffff" d="M 97.460938 108.664062 L 93.492188 108.664062 C 92.402344 108.664062 91.511719 109.554688 91.511719 110.644531 C 91.511719 111.734375 92.402344 112.628906 93.492188 112.628906 L 97.460938 112.628906 C 98.550781 112.628906 99.441406 111.734375 99.441406 110.644531 C 99.441406 109.554688 98.550781 108.664062 97.460938 108.664062 Z M 97.460938 108.664062 " fill-opacity="1" fill-rule="nonzero"/></svg>