<svg xmlns="http://www.w3.org/2000/svg" xmlns:xlink="http://www.w3.org/1999/xlink" width="170" zoomAndPan="magnify" viewBox="0 0 127.5 127.499994" height="170" preserveAspectRatio="xMidYMid meet" version="1.0"><defs><clipPath id="id1"><path d="M 68 44 L 126 44 L 126 124.847656 L 68 124.847656 Z M 68 44 " clip-rule="nonzero"/></clipPath><clipPath id="id2"><path d="M 2 45 L 58 45 L 58 124.847656 L 2 124.847656 Z M 2 45 " clip-rule="nonzero"/></clipPath><clipPath id="id3"><path d="M 39 2.597656 L 88 2.597656 L 88 32 L 39 32 Z M 39 2.597656 " clip-rule="nonzero"/></clipPath></defs><g clip-path="url(#id1)"><path fill="#ffffff" d="M 123.367188 74.496094 C 123.269531 74.210938 123.078125 73.925781 122.886719 73.640625 L 112.269531 49.992188 C 111.21875 47.414062 109.113281 45.605469 106.625 44.839844 C 106.433594 45.316406 106.148438 45.699219 105.859375 46.082031 C 105.289062 46.9375 104.617188 47.605469 103.851562 48.273438 C 105.957031 48.179688 107.871094 49.324219 108.730469 51.421875 L 118.679688 73.449219 L 100.503906 78.3125 L 96.007812 61.433594 L 101.84375 59.527344 C 102.894531 59.238281 103.375 58.097656 103.085938 57.140625 C 102.800781 56.09375 101.652344 55.617188 100.695312 55.902344 L 74.582031 64.292969 C 73.71875 64.582031 72.859375 64.199219 72.574219 63.53125 C 72.476562 63.148438 72.574219 62.863281 72.667969 62.671875 C 72.859375 62.292969 73.148438 62.101562 73.527344 61.910156 L 95.914062 54.757812 C 96.964844 54.472656 97.445312 53.328125 97.15625 52.375 C 96.871094 51.324219 95.722656 50.847656 94.765625 51.132812 L 77.261719 56.953125 C 76.496094 57.046875 75.730469 56.761719 75.441406 56.09375 C 75.25 55.617188 75.347656 55.332031 75.441406 55.042969 C 75.632812 54.664062 75.921875 54.375 76.398438 54.28125 L 90.554688 49.800781 C 89.21875 49.035156 87.972656 48.082031 86.921875 46.9375 L 75.347656 50.65625 C 73.816406 51.132812 72.667969 52.089844 72 53.519531 C 71.425781 54.855469 71.425781 56.378906 72 57.714844 C 72.09375 58 72.285156 58.285156 72.476562 58.574219 L 72.382812 58.574219 C 70.945312 59.050781 69.796875 60.003906 69.226562 61.242188 C 68.652344 62.484375 68.554688 63.816406 69.035156 65.058594 C 69.796875 67.15625 71.808594 68.394531 74.101562 68.394531 C 74.675781 68.394531 75.25 68.300781 75.824219 68.109375 L 92.375 62.769531 L 97.15625 80.695312 L 91.226562 86.417969 C 91.226562 86.417969 91.128906 86.511719 91.128906 86.511719 C 90.078125 87.65625 89.597656 89.085938 89.789062 90.613281 L 92.085938 118.078125 C 92.183594 119.507812 92.949219 120.84375 94.09375 121.699219 C 95.050781 122.464844 96.105469 122.84375 97.347656 122.84375 C 97.632812 122.84375 97.824219 122.84375 98.113281 122.75 C 98.6875 122.652344 99.164062 122.464844 99.644531 122.273438 C 99.929688 122.75 100.410156 123.226562 100.792969 123.605469 C 101.746094 124.273438 102.800781 124.65625 103.949219 124.65625 C 104.234375 124.65625 104.425781 124.65625 104.714844 124.5625 C 107.105469 124.179688 109.019531 122.175781 109.113281 119.699219 L 110.453125 99.480469 L 122.21875 87.941406 C 124.800781 85.65625 125.851562 81.839844 124.707031 78.597656 Z M 119.539062 85.273438 L 107.105469 97.382812 C 106.722656 97.667969 106.53125 98.148438 106.53125 98.625 L 105.097656 119.507812 C 105.097656 120.175781 104.523438 120.746094 103.949219 120.84375 C 103.660156 120.84375 103.277344 120.84375 102.992188 120.554688 C 102.703125 120.269531 102.511719 119.984375 102.417969 119.507812 L 100.21875 96.238281 C 100.21875 95.761719 100.3125 95.382812 100.695312 95 L 105.859375 88.707031 C 106.53125 87.847656 106.433594 86.703125 105.574219 86.035156 C 104.714844 85.367188 103.566406 85.464844 102.894531 86.320312 L 97.730469 92.617188 C 96.773438 93.761719 96.296875 95.191406 96.390625 96.714844 L 98.496094 118.265625 C 98.304688 118.648438 97.921875 118.933594 97.445312 119.03125 C 97.0625 119.03125 96.679688 118.933594 96.390625 118.742188 C 96.105469 118.457031 95.914062 118.171875 95.816406 117.789062 L 93.519531 90.136719 C 93.519531 89.753906 93.617188 89.375 93.902344 88.992188 L 100.984375 82.222656 L 119.539062 77.261719 L 120.304688 77.167969 L 121.167969 79.835938 C 121.644531 81.746094 121.070312 83.9375 119.539062 85.273438 Z M 119.539062 85.273438 " fill-opacity="1" fill-rule="nonzero"/></g><path fill="#ffffff" d="M 87.878906 40.453125 C 88.738281 44.554688 92.277344 47.414062 96.199219 47.414062 C 96.679688 47.414062 97.0625 47.414062 97.539062 47.320312 C 99.644531 46.9375 101.460938 45.792969 102.609375 44.078125 C 103.851562 42.265625 104.332031 39.976562 103.851562 37.6875 L 102.992188 33.398438 C 102.035156 28.917969 97.730469 25.863281 93.332031 26.53125 C 91.226562 26.914062 89.410156 28.058594 88.261719 29.773438 C 87.015625 31.585938 86.539062 33.875 87.015625 36.164062 Z M 91.417969 31.96875 C 91.992188 31.109375 92.949219 30.441406 94 30.347656 C 94.191406 30.347656 94.476562 30.25 94.667969 30.25 C 96.773438 30.25 98.78125 31.871094 99.261719 34.160156 L 100.121094 38.453125 C 100.410156 39.691406 100.121094 40.929688 99.453125 41.980469 C 98.878906 42.839844 97.921875 43.507812 96.871094 43.601562 C 94.476562 43.984375 92.183594 42.265625 91.609375 39.785156 L 90.746094 35.496094 C 90.460938 34.160156 90.746094 32.921875 91.417969 31.96875 Z M 91.417969 31.96875 " fill-opacity="1" fill-rule="nonzero"/><path fill="#ffffff" d="M 69.703125 43.601562 C 70.753906 43.601562 71.617188 42.742188 71.617188 41.695312 C 71.617188 29.964844 74.582031 24.054688 75.632812 22.433594 C 76.6875 21.765625 77.355469 20.90625 77.355469 19.761719 C 77.355469 15.375 67.121094 14.992188 63.964844 14.992188 C 60.808594 14.992188 50.570312 15.375 50.570312 19.761719 C 50.570312 20.8125 51.144531 21.667969 52.101562 22.242188 C 52.867188 24.054688 55.164062 29.964844 55.164062 41.695312 C 55.164062 42.742188 56.023438 43.601562 57.078125 43.601562 C 58.128906 43.601562 58.988281 42.742188 58.988281 41.695312 C 58.988281 33.113281 57.839844 27.390625 56.789062 23.957031 C 59.5625 24.433594 62.527344 24.53125 63.964844 24.53125 C 65.304688 24.53125 68.078125 24.433594 70.660156 24.054688 C 69.320312 27.582031 67.886719 33.300781 67.886719 41.695312 C 67.789062 42.742188 68.652344 43.601562 69.703125 43.601562 Z M 63.867188 20.714844 C 60.042969 20.714844 57.171875 20.238281 55.546875 19.761719 C 57.171875 19.285156 59.945312 18.808594 63.867188 18.808594 C 67.695312 18.808594 70.5625 19.285156 72.191406 19.761719 C 70.5625 20.238281 67.695312 20.714844 63.867188 20.714844 Z M 63.867188 20.714844 " fill-opacity="1" fill-rule="nonzero"/><path fill="#ffffff" d="M 61.953125 73.542969 C 57.839844 73.542969 54.015625 75.164062 51.144531 78.027344 C 48.277344 80.886719 46.648438 84.699219 46.648438 88.800781 C 46.648438 92.902344 48.277344 96.714844 51.144531 99.578125 C 54.015625 102.4375 57.839844 104.058594 61.953125 104.058594 C 66.066406 104.058594 69.894531 102.4375 72.765625 99.578125 C 75.632812 96.714844 77.261719 92.902344 77.261719 88.800781 C 77.261719 84.699219 75.632812 80.886719 72.765625 78.027344 C 69.894531 75.164062 66.066406 73.542969 61.953125 73.542969 Z M 50.476562 88.800781 C 50.476562 86.417969 51.144531 84.222656 52.484375 82.316406 C 54.300781 84.128906 55.355469 86.226562 55.640625 88.609375 L 55.640625 88.898438 C 55.355469 91.28125 54.300781 93.378906 52.484375 95.191406 C 51.242188 93.378906 50.476562 91.089844 50.476562 88.800781 Z M 61.953125 100.246094 C 59.46875 100.246094 57.078125 99.480469 55.164062 98.050781 C 57.648438 95.570312 59.085938 92.617188 59.46875 89.277344 C 59.46875 89.183594 59.46875 89.183594 59.46875 89.085938 L 59.46875 88.609375 C 59.46875 88.515625 59.46875 88.515625 59.46875 88.421875 C 59.085938 85.082031 57.648438 82.125 55.164062 79.648438 C 57.078125 78.214844 59.46875 77.453125 61.953125 77.453125 C 64.347656 77.453125 66.738281 78.214844 68.652344 79.648438 C 66.066406 82.125 64.632812 85.082031 64.25 88.421875 C 64.25 88.515625 64.25 88.515625 64.25 88.609375 L 64.25 89.085938 C 64.25 89.183594 64.25 89.183594 64.25 89.277344 C 64.632812 92.710938 66.066406 95.667969 68.652344 98.050781 C 66.738281 99.480469 64.347656 100.246094 61.953125 100.246094 Z M 71.328125 95.382812 C 69.417969 93.570312 68.363281 91.375 68.078125 88.992188 L 68.078125 88.707031 C 68.363281 86.226562 69.511719 84.128906 71.328125 82.316406 C 72.667969 84.222656 73.433594 86.511719 73.433594 88.898438 C 73.433594 91.183594 72.667969 93.472656 71.328125 95.382812 Z M 71.328125 95.382812 " fill-opacity="1" fill-rule="nonzero"/><path fill="#ffffff" d="M 34.597656 26.53125 C 30.195312 25.769531 25.890625 28.820312 24.9375 33.398438 L 24.074219 37.6875 C 23.597656 39.976562 24.074219 42.265625 25.320312 44.078125 C 26.5625 45.792969 28.378906 47.035156 30.386719 47.320312 C 30.867188 47.414062 31.34375 47.414062 31.824219 47.414062 C 35.746094 47.414062 39.285156 44.554688 40.144531 40.453125 L 41.007812 36.164062 C 41.484375 33.875 41.007812 31.585938 39.761719 29.773438 C 38.519531 28.058594 36.703125 26.914062 34.597656 26.53125 Z M 37.277344 35.496094 L 36.414062 39.785156 C 35.9375 42.265625 33.542969 43.984375 31.152344 43.601562 C 30.101562 43.410156 29.144531 42.839844 28.570312 41.980469 C 27.902344 41.027344 27.613281 39.785156 27.902344 38.453125 L 28.761719 34.160156 C 29.242188 31.679688 31.632812 29.964844 34.023438 30.347656 C 35.074219 30.539062 36.03125 31.109375 36.605469 31.96875 C 37.277344 32.921875 37.464844 34.160156 37.277344 35.496094 Z M 37.277344 35.496094 " fill-opacity="1" fill-rule="nonzero"/><g clip-path="url(#id2)"><path fill="#ffffff" d="M 35.648438 61.433594 L 36.605469 57.523438 L 50.09375 61.527344 C 50.667969 61.71875 51.242188 61.816406 51.816406 61.816406 C 53.917969 61.816406 55.929688 60.671875 56.789062 58.667969 C 57.363281 57.332031 57.363281 55.808594 56.789062 54.472656 C 56.121094 53.136719 54.972656 52.089844 53.441406 51.613281 L 40.527344 47.511719 C 39.378906 48.65625 38.039062 49.609375 36.511719 50.277344 L 52.292969 55.234375 C 52.773438 55.332031 53.058594 55.617188 53.25 55.996094 C 53.347656 56.1875 53.441406 56.570312 53.25 57.046875 C 52.964844 57.714844 52.007812 58.097656 51.144531 57.808594 L 36.03125 53.328125 C 35.839844 53.234375 35.648438 53.234375 35.554688 53.234375 C 34.5 53.042969 33.542969 53.613281 33.355469 54.664062 L 32.683594 57.617188 L 31.152344 55.710938 C 30.484375 54.855469 29.242188 54.757812 28.476562 55.425781 C 27.613281 56.09375 27.519531 57.332031 28.1875 58.097656 L 42.535156 76.023438 C 42.726562 76.308594 42.824219 76.691406 42.824219 76.976562 C 42.824219 77.167969 42.726562 77.453125 42.34375 77.738281 C 41.675781 78.214844 40.625 78.027344 40.144531 77.359375 L 23.214844 56.476562 C 22.542969 55.617188 21.300781 55.519531 20.535156 56.1875 C 19.675781 56.855469 19.578125 58.097656 20.25 58.859375 L 29.527344 70.398438 L 27.613281 78.40625 L 9.152344 73.640625 L 19.292969 51.515625 C 20.058594 49.609375 22.066406 48.371094 24.171875 48.464844 C 23.40625 47.796875 22.734375 47.128906 22.160156 46.269531 C 21.875 45.890625 21.683594 45.414062 21.398438 45.03125 C 18.910156 45.792969 16.804688 47.605469 15.753906 50.085938 L 4.945312 73.640625 C 4.65625 73.832031 4.5625 74.117188 4.371094 74.496094 L 3.125 78.695312 C 1.976562 82.03125 3.03125 85.84375 5.613281 88.132812 L 17.378906 99.671875 L 18.71875 119.886719 C 18.910156 122.367188 20.726562 124.371094 23.117188 124.75 C 23.40625 124.75 23.597656 124.847656 23.882812 124.847656 C 25.03125 124.847656 26.082031 124.464844 27.039062 123.796875 C 27.902344 123.128906 28.476562 122.273438 28.761719 121.320312 C 29.335938 121.699219 30.003906 121.890625 30.675781 121.988281 C 30.960938 121.988281 31.152344 122.082031 31.441406 122.082031 C 32.589844 122.082031 33.734375 121.699219 34.691406 120.9375 C 35.839844 120.078125 36.511719 118.742188 36.703125 117.3125 L 38.996094 89.5625 C 39.1875 88.039062 38.613281 86.609375 37.65625 85.464844 C 37.65625 85.464844 37.5625 85.367188 37.5625 85.367188 L 31.34375 79.550781 L 32.589844 74.210938 L 37.085938 79.742188 C 38.136719 81.078125 39.761719 81.839844 41.390625 81.839844 C 42.441406 81.839844 43.492188 81.554688 44.449219 80.886719 C 45.597656 80.125 46.363281 78.882812 46.554688 77.550781 C 46.746094 76.117188 46.363281 74.785156 45.5 73.640625 Z M 34.789062 88.132812 C 35.074219 88.421875 35.171875 88.800781 35.171875 89.277344 L 32.875 116.742188 C 32.875 117.121094 32.683594 117.503906 32.300781 117.695312 C 32.015625 117.886719 31.632812 117.980469 31.25 117.980469 C 30.578125 117.886719 30.101562 117.3125 30.003906 116.644531 L 29.71875 112.449219 L 31.34375 96.621094 C 31.535156 95.09375 30.960938 93.664062 30.101562 92.617188 L 24.9375 86.320312 C 24.265625 85.464844 23.023438 85.367188 22.257812 86.035156 C 21.398438 86.703125 21.300781 87.941406 21.96875 88.707031 L 27.230469 95.09375 C 27.519531 95.382812 27.613281 95.859375 27.613281 96.238281 L 25.320312 119.601562 C 25.320312 119.984375 25.128906 120.363281 24.746094 120.652344 C 24.457031 120.84375 24.171875 120.9375 23.789062 120.9375 C 23.117188 120.84375 22.640625 120.269531 22.640625 119.601562 L 21.207031 98.71875 C 21.207031 98.242188 21.015625 97.765625 20.632812 97.480469 L 8.292969 85.273438 C 8.292969 85.273438 8.195312 85.179688 8.195312 85.179688 C 6.664062 83.9375 6.089844 81.746094 6.761719 79.835938 L 7.621094 77.167969 L 28.667969 82.699219 C 28.859375 82.699219 28.953125 82.792969 29.144531 82.792969 C 29.144531 82.792969 29.144531 82.792969 29.242188 82.792969 Z M 34.789062 88.132812 " fill-opacity="1" fill-rule="nonzero"/></g><g clip-path="url(#id3)"><path fill="#ffffff" d="M 85.105469 27.675781 C 85.867188 26.628906 86.730469 25.675781 87.78125 24.910156 L 87.78125 4.503906 C 87.78125 3.457031 86.921875 2.597656 85.867188 2.597656 L 41.867188 2.597656 C 40.816406 2.597656 39.953125 3.457031 39.953125 4.503906 L 39.953125 24.71875 C 41.101562 25.484375 42.058594 26.53125 42.917969 27.675781 C 43.683594 28.726562 44.164062 29.964844 44.546875 31.203125 L 50.476562 31.203125 C 50.1875 29.679688 49.996094 28.4375 49.710938 27.390625 L 43.78125 27.390625 L 43.78125 6.410156 L 83.957031 6.410156 L 83.957031 27.390625 L 77.453125 27.390625 C 77.070312 28.4375 76.6875 29.679688 76.398438 31.203125 L 83.382812 31.203125 C 83.765625 29.964844 84.339844 28.726562 85.105469 27.675781 Z M 85.105469 27.675781 " fill-opacity="1" fill-rule="nonzero"/></g></svg>