<svg xmlns="http://www.w3.org/2000/svg" xmlns:xlink="http://www.w3.org/1999/xlink" width="170" zoomAndPan="magnify" viewBox="0 0 127.5 127.499994" height="170" preserveAspectRatio="xMidYMid meet" version="1.0"><defs><clipPath id="id1"><path d="M 54 11.242188 L 72 11.242188 L 72 33 L 54 33 Z M 54 11.242188 " clip-rule="nonzero"/></clipPath><clipPath id="id2"><path d="M 63 51 L 125 51 L 125 116.242188 L 63 116.242188 Z M 63 51 " clip-rule="nonzero"/></clipPath><clipPath id="id3"><path d="M 2.15625 51 L 64 51 L 64 116.242188 L 2.15625 116.242188 Z M 2.15625 51 " clip-rule="nonzero"/></clipPath></defs><path fill="#ffffff" d="M 70.519531 35.238281 C 71.09375 36.097656 72.332031 36.289062 73.191406 35.714844 L 87.015625 25.882812 C 87.492188 25.59375 88.066406 25.5 88.542969 25.59375 C 89.113281 25.691406 89.496094 26.074219 89.78125 26.550781 C 90.257812 27.410156 89.878906 28.460938 89.019531 29.03125 L 74.8125 39.152344 C 74.335938 39.535156 74.050781 40.109375 74.050781 40.683594 L 74.050781 48.894531 C 74.238281 48.988281 74.429688 49.085938 74.621094 49.277344 L 74.714844 49.371094 L 77.863281 51.566406 L 77.863281 41.636719 L 91.210938 32.089844 C 93.691406 30.371094 94.550781 27.125 93.117188 24.546875 C 92.355469 23.113281 91.019531 22.15625 89.398438 21.777344 C 87.875 21.394531 86.160156 21.679688 84.824219 22.636719 L 70.902344 32.566406 C 70.042969 33.234375 69.855469 34.378906 70.519531 35.238281 Z M 70.519531 35.238281 " fill-opacity="1" fill-rule="nonzero"/><path fill="#ffffff" d="M 65.371094 66.941406 L 73 82.695312 C 73.574219 83.9375 74.527344 84.890625 75.574219 85.558594 L 75.574219 79.160156 L 71.1875 70.1875 L 63.65625 64.839844 C 63.5625 64.742188 63.464844 64.742188 63.371094 64.648438 C 63.179688 64.742188 63.082031 64.839844 62.894531 64.933594 L 55.074219 70.472656 L 51.164062 78.589844 L 51.164062 85.367188 C 52.023438 84.699219 52.785156 83.839844 53.359375 82.789062 L 61.082031 66.84375 C 61.464844 65.984375 62.320312 65.507812 63.273438 65.507812 C 64.226562 65.507812 64.992188 66.082031 65.371094 66.941406 Z M 65.371094 66.941406 " fill-opacity="1" fill-rule="nonzero"/><path fill="#ffffff" d="M 35.242188 31.992188 L 48.78125 41.636719 L 48.78125 51.472656 L 52.214844 49.085938 C 52.308594 48.988281 52.5 48.894531 52.59375 48.796875 L 52.59375 40.585938 C 52.59375 40.011719 52.308594 39.34375 51.832031 39.058594 L 37.433594 28.84375 C 36.957031 28.554688 36.671875 28.078125 36.671875 27.601562 C 36.578125 27.125 36.671875 26.644531 37.054688 26.167969 C 37.625 25.40625 38.960938 25.214844 39.820312 25.882812 L 53.550781 35.621094 C 54.40625 36.195312 55.550781 36.003906 56.21875 35.144531 C 56.789062 34.285156 56.601562 33.140625 55.742188 32.46875 L 41.917969 22.730469 C 39.34375 21.011719 35.8125 21.488281 34.003906 23.875 C 33.050781 25.117188 32.667969 26.644531 32.859375 28.269531 C 33.050781 29.796875 34.003906 31.230469 35.242188 31.992188 Z M 35.242188 31.992188 " fill-opacity="1" fill-rule="nonzero"/><g clip-path="url(#id1)"><path fill="#ffffff" d="M 62.988281 32.183594 L 63.5625 32.183594 C 68.234375 32.183594 71.855469 28.554688 71.855469 23.875 L 71.855469 19.578125 C 71.855469 14.902344 68.234375 11.273438 63.5625 11.273438 L 62.988281 11.273438 C 60.796875 11.273438 58.699219 12.132812 57.078125 13.660156 C 55.550781 15.1875 54.597656 17.382812 54.597656 19.578125 L 54.597656 23.875 C 54.691406 28.554688 58.316406 32.183594 62.988281 32.183594 Z M 58.507812 19.484375 C 58.507812 18.242188 58.984375 17.097656 59.84375 16.238281 C 60.699219 15.378906 61.84375 14.902344 62.988281 14.902344 L 63.5625 14.902344 C 66.039062 14.902344 68.042969 16.90625 68.042969 19.390625 L 68.042969 23.6875 C 68.042969 26.265625 66.039062 28.171875 63.5625 28.171875 L 62.988281 28.171875 C 60.507812 28.171875 58.507812 26.167969 58.507812 23.6875 Z M 58.507812 19.484375 " fill-opacity="1" fill-rule="nonzero"/></g><path fill="#ffffff" d="M 93.5 39.824219 C 91.308594 39.824219 89.210938 40.683594 87.589844 42.210938 C 86.0625 43.738281 85.109375 45.933594 85.109375 48.128906 L 85.109375 52.425781 C 85.109375 57.105469 88.734375 60.734375 93.40625 60.734375 L 93.976562 60.734375 C 98.648438 60.734375 102.273438 57.105469 102.273438 52.425781 L 102.273438 48.128906 C 102.273438 43.449219 98.648438 39.824219 93.976562 39.824219 Z M 98.554688 48.128906 L 98.554688 52.425781 C 98.554688 55.003906 96.550781 56.914062 94.074219 56.914062 L 93.5 56.914062 C 91.019531 56.914062 89.019531 54.910156 89.019531 52.425781 L 89.019531 48.128906 C 89.019531 46.886719 89.496094 45.742188 90.355469 44.882812 C 91.210938 44.023438 92.355469 43.546875 93.5 43.546875 L 94.074219 43.546875 C 96.550781 43.640625 98.554688 45.648438 98.554688 48.128906 Z M 98.554688 48.128906 " fill-opacity="1" fill-rule="nonzero"/><g clip-path="url(#id2)"><path fill="#ffffff" d="M 101.414062 62.164062 C 100.554688 62.738281 100.367188 63.980469 100.9375 64.839844 C 101.507812 65.699219 102.75 65.890625 103.605469 65.316406 L 117.433594 55.480469 C 117.910156 55.195312 118.480469 55.101562 118.957031 55.195312 C 119.53125 55.289062 119.910156 55.671875 120.199219 56.148438 C 120.675781 57.007812 120.292969 58.058594 119.433594 58.632812 L 105.226562 68.753906 C 104.75 69.136719 104.464844 69.707031 104.464844 70.28125 L 104.464844 90.90625 C 104.464844 90.90625 104.464844 91 104.464844 91 C 104.464844 91.289062 104.5625 91.574219 104.65625 91.859375 L 112.285156 108.378906 C 112.664062 109.238281 112.664062 110.195312 112.09375 111.054688 C 111.519531 111.914062 110.664062 112.390625 109.613281 112.390625 C 108.46875 112.484375 107.421875 111.722656 106.847656 110.574219 L 99.222656 94.820312 C 98.171875 92.71875 95.980469 91.289062 93.59375 91.289062 C 91.210938 91.289062 89.019531 92.625 87.96875 94.820312 L 80.246094 110.765625 C 79.675781 112.007812 78.246094 112.675781 76.910156 112.292969 C 76.050781 112.105469 75.382812 111.53125 75.003906 110.863281 C 74.621094 110.097656 74.621094 109.144531 75.003906 108.285156 L 82.820312 91.289062 C 82.917969 91 83.011719 90.8125 83.011719 90.523438 L 83.011719 70.28125 C 83.011719 69.707031 82.726562 69.039062 82.25 68.753906 L 67.945312 58.441406 C 67.46875 58.15625 67.183594 57.679688 67.183594 57.199219 C 67.089844 56.722656 67.183594 56.246094 67.566406 55.769531 C 68.136719 55.003906 69.472656 54.8125 70.332031 55.480469 L 84.0625 65.222656 C 84.917969 65.792969 86.0625 65.601562 86.730469 64.742188 C 87.300781 63.882812 87.113281 62.738281 86.253906 62.070312 L 72.429688 52.332031 C 69.855469 50.613281 66.324219 51.089844 64.515625 53.476562 C 63.5625 54.71875 63.179688 56.246094 63.371094 57.867188 C 63.65625 59.398438 64.515625 60.828125 65.753906 61.59375 L 79.292969 71.238281 L 79.292969 89.953125 L 71.664062 106.566406 C 70.808594 108.476562 70.808594 110.671875 71.664062 112.484375 C 72.523438 114.203125 74.144531 115.539062 76.148438 116.019531 C 76.71875 116.113281 77.289062 116.210938 77.769531 116.210938 C 80.34375 116.210938 82.726562 114.777344 83.871094 112.390625 L 91.59375 96.445312 C 91.976562 95.585938 92.832031 95.109375 93.785156 95.109375 C 94.738281 95.109375 95.597656 95.679688 95.980469 96.445312 L 103.605469 112.199219 C 104.75 114.679688 107.230469 116.210938 109.898438 116.210938 C 112.1875 116.210938 114.285156 114.96875 115.527344 113.058594 C 116.765625 111.148438 116.859375 108.855469 115.90625 106.757812 L 108.46875 90.621094 L 108.46875 71.238281 L 121.820312 61.6875 C 124.296875 59.96875 125.15625 56.722656 123.726562 54.144531 C 122.964844 52.710938 121.628906 51.757812 120.007812 51.375 C 118.480469 50.992188 116.765625 51.28125 115.429688 52.234375 Z M 101.414062 62.164062 " fill-opacity="1" fill-rule="nonzero"/></g><path fill="#ffffff" d="M 32.476562 60.828125 L 33.050781 60.828125 C 37.722656 60.828125 41.34375 57.199219 41.34375 52.523438 L 41.34375 48.226562 C 41.34375 43.546875 37.722656 39.917969 33.050781 39.917969 L 32.476562 39.917969 C 30.285156 39.917969 28.1875 40.777344 26.566406 42.304688 C 25.039062 43.832031 24.085938 46.027344 24.085938 48.226562 L 24.085938 52.523438 C 24.183594 57.199219 27.804688 60.828125 32.476562 60.828125 Z M 27.996094 48.128906 C 27.996094 46.886719 28.472656 45.742188 29.332031 44.882812 C 30.1875 44.023438 31.332031 43.546875 32.476562 43.546875 L 33.050781 43.546875 C 35.527344 43.546875 37.53125 45.550781 37.53125 48.035156 L 37.53125 52.332031 C 37.53125 54.910156 35.527344 56.820312 33.050781 56.820312 L 32.476562 56.820312 C 29.996094 56.820312 27.996094 54.8125 27.996094 52.332031 Z M 27.996094 48.128906 " fill-opacity="1" fill-rule="nonzero"/><g clip-path="url(#id3)"><path fill="#ffffff" d="M 4.730469 61.59375 L 18.269531 71.238281 L 18.269531 89.953125 L 10.640625 106.566406 C 9.785156 108.476562 9.785156 110.671875 10.640625 112.484375 C 11.5 114.203125 13.121094 115.539062 15.125 116.019531 C 15.695312 116.113281 16.269531 116.210938 16.746094 116.210938 C 19.320312 116.210938 21.703125 114.777344 22.847656 112.390625 L 30.570312 96.445312 C 30.953125 95.585938 31.808594 95.109375 32.761719 95.109375 C 33.714844 95.109375 34.574219 95.679688 34.957031 96.445312 L 42.582031 112.199219 C 43.726562 114.679688 46.207031 116.210938 48.878906 116.210938 C 51.164062 116.210938 53.261719 114.96875 54.503906 113.058594 C 55.742188 111.148438 55.835938 108.855469 54.882812 106.757812 L 47.445312 90.621094 L 47.445312 71.238281 L 60.796875 61.6875 C 63.273438 59.96875 64.132812 56.722656 62.703125 54.144531 C 61.941406 52.710938 60.605469 51.757812 58.984375 51.375 C 57.457031 50.992188 55.742188 51.28125 54.40625 52.234375 L 40.390625 62.164062 C 39.53125 62.738281 39.34375 63.980469 39.914062 64.839844 C 40.484375 65.699219 41.726562 65.890625 42.582031 65.316406 L 56.410156 55.480469 C 56.886719 55.195312 57.457031 55.101562 57.933594 55.195312 C 58.507812 55.289062 58.886719 55.671875 59.175781 56.148438 C 59.652344 57.007812 59.269531 58.058594 58.410156 58.632812 L 44.300781 68.753906 C 43.824219 69.136719 43.539062 69.707031 43.539062 70.28125 L 43.539062 90.90625 C 43.539062 90.90625 43.539062 91 43.539062 91 C 43.539062 91.289062 43.632812 91.574219 43.726562 91.859375 L 51.355469 108.378906 C 51.738281 109.238281 51.738281 110.195312 51.164062 111.054688 C 50.59375 111.914062 49.734375 112.390625 48.6875 112.390625 C 47.542969 112.484375 46.492188 111.722656 45.921875 110.574219 L 38.292969 94.820312 C 37.246094 92.71875 35.050781 91.289062 32.667969 91.289062 C 30.285156 91.289062 28.089844 92.625 27.042969 94.820312 L 19.320312 110.765625 C 18.746094 112.007812 17.316406 112.675781 15.980469 112.292969 C 15.125 112.105469 14.457031 111.53125 14.074219 110.863281 C 13.691406 110.097656 13.691406 109.144531 14.074219 108.285156 L 21.894531 91.289062 C 21.988281 91 22.082031 90.8125 22.082031 90.523438 L 22.082031 70.28125 C 22.082031 69.707031 21.796875 69.039062 21.320312 68.753906 L 6.921875 58.441406 C 6.445312 58.15625 6.160156 57.679688 6.160156 57.199219 C 6.066406 56.722656 6.160156 56.246094 6.542969 55.769531 C 7.113281 55.003906 8.449219 54.8125 9.308594 55.480469 L 23.039062 65.222656 C 23.894531 65.792969 25.039062 65.601562 25.707031 64.742188 C 26.28125 63.882812 26.089844 62.738281 25.230469 62.070312 L 11.40625 52.332031 C 8.832031 50.613281 5.300781 51.089844 3.492188 53.476562 C 2.539062 54.71875 2.15625 56.246094 2.347656 57.867188 C 2.539062 59.398438 3.492188 60.828125 4.730469 61.59375 Z M 4.730469 61.59375 " fill-opacity="1" fill-rule="nonzero"/></g><path fill="#ffffff" d="M 107.421875 36.957031 C 107.898438 36.957031 108.375 36.765625 108.757812 36.386719 L 116.382812 28.746094 C 117.148438 27.984375 117.148438 26.835938 116.382812 26.074219 C 115.621094 25.308594 114.476562 25.308594 113.714844 26.074219 L 106.085938 33.710938 C 105.324219 34.476562 105.324219 35.621094 106.085938 36.386719 C 106.371094 36.765625 106.847656 36.957031 107.421875 36.957031 Z M 107.421875 36.957031 " fill-opacity="1" fill-rule="nonzero"/><path fill="#ffffff" d="M 115.050781 34.1875 L 109.804688 39.441406 C 109.042969 40.203125 109.042969 41.351562 109.804688 42.113281 C 110.1875 42.496094 110.664062 42.6875 111.140625 42.6875 C 111.617188 42.6875 112.09375 42.496094 112.476562 42.113281 L 117.71875 36.863281 C 118.480469 36.097656 118.480469 34.953125 117.71875 34.1875 C 117.050781 33.425781 115.8125 33.425781 115.050781 34.1875 Z M 115.050781 34.1875 " fill-opacity="1" fill-rule="nonzero"/><path fill="#ffffff" d="M 17.792969 36.386719 C 18.175781 36.765625 18.652344 36.957031 19.128906 36.957031 C 19.605469 36.957031 20.082031 36.765625 20.464844 36.386719 C 21.226562 35.621094 21.226562 34.476562 20.464844 33.710938 L 12.835938 26.074219 C 12.074219 25.308594 10.929688 25.308594 10.164062 26.074219 C 9.402344 26.835938 9.402344 27.984375 10.164062 28.746094 Z M 17.792969 36.386719 " fill-opacity="1" fill-rule="nonzero"/><path fill="#ffffff" d="M 13.980469 42.113281 C 14.359375 42.496094 14.835938 42.6875 15.3125 42.6875 C 15.789062 42.6875 16.269531 42.496094 16.648438 42.113281 C 17.410156 41.351562 17.410156 40.203125 16.648438 39.441406 L 11.40625 34.1875 C 10.640625 33.425781 9.496094 33.425781 8.734375 34.1875 C 7.972656 34.953125 7.972656 36.097656 8.734375 36.863281 Z M 13.980469 42.113281 " fill-opacity="1" fill-rule="nonzero"/></svg>