<svg xmlns="http://www.w3.org/2000/svg" xmlns:xlink="http://www.w3.org/1999/xlink" width="170" zoomAndPan="magnify" viewBox="0 0 127.5 127.499994" height="170" preserveAspectRatio="xMidYMid meet" version="1.0"><defs><clipPath id="id1"><path d="M 3 11 L 125.800781 11 L 125.800781 117.398438 L 3 117.398438 Z M 3 11 " clip-rule="nonzero"/></clipPath></defs><g clip-path="url(#id1)"><path fill="#ffffff" d="M 104.527344 35.570312 C 103.09375 33.136719 101.429688 30.871094 99.535156 28.773438 C 90.003906 18.285156 75.175781 11.898438 58.8125 11.222656 C 29.664062 10.140625 4.585938 28.039062 3.074219 51.121094 C 1.96875 69.039062 15.039062 85.222656 35.800781 91.9375 L 27.617188 114.589844 C 27.46875 114.992188 27.449219 115.398438 27.558594 115.8125 C 27.667969 116.230469 27.882812 116.574219 28.210938 116.855469 C 28.589844 117.175781 29.023438 117.339844 29.519531 117.34375 C 29.886719 117.347656 30.226562 117.257812 30.542969 117.078125 L 72.617188 93.160156 C 75.316406 92.472656 77.957031 91.601562 80.535156 90.546875 C 84.425781 92.03125 88.457031 92.800781 92.625 92.855469 L 114.734375 102.875 C 115 102.996094 115.28125 103.058594 115.574219 103.058594 C 116.140625 103.0625 116.625 102.863281 117.027344 102.464844 C 117.324219 102.164062 117.511719 101.804688 117.585938 101.386719 C 117.664062 100.96875 117.613281 100.566406 117.433594 100.179688 L 111.769531 87.570312 C 112.820312 86.941406 113.828125 86.25 114.792969 85.496094 C 115.757812 84.742188 116.667969 83.925781 117.527344 83.054688 C 118.386719 82.183594 119.1875 81.261719 119.929688 80.289062 C 120.671875 79.316406 121.347656 78.300781 121.960938 77.242188 C 122.570312 76.179688 123.113281 75.085938 123.585938 73.957031 C 124.054688 72.832031 124.453125 71.675781 124.777344 70.496094 C 125.101562 69.320312 125.347656 68.125 125.519531 66.914062 C 125.691406 65.703125 125.785156 64.484375 125.800781 63.261719 C 125.800781 50.875 117.269531 39.792969 104.527344 35.570312 Z M 71.308594 89.261719 C 71.128906 89.308594 70.960938 89.378906 70.796875 89.464844 L 33.324219 110.773438 L 40.484375 91.386719 C 40.6875 90.824219 40.65625 90.28125 40.382812 89.753906 C 40.117188 89.226562 39.703125 88.878906 39.132812 88.710938 C 19.007812 82.914062 6.183594 67.917969 7.164062 51.386719 C 8.492188 31.121094 30.214844 15.304688 56.253906 15.304688 L 58.710938 15.304688 C 73.96875 15.898438 87.753906 21.773438 96.53125 31.46875 C 98.03125 33.027344 99.355469 34.722656 100.511719 36.550781 C 101.664062 38.382812 102.617188 40.308594 103.375 42.335938 C 104.136719 44.359375 104.679688 46.441406 105.011719 48.578125 C 105.34375 50.710938 105.453125 52.859375 105.347656 55.019531 C 104.304688 70.671875 90.660156 84.445312 71.308594 89.261719 Z M 108.128906 84.957031 C 107.917969 85.089844 107.738281 85.257812 107.585938 85.460938 C 107.4375 85.660156 107.328125 85.882812 107.261719 86.121094 C 107.195312 86.363281 107.171875 86.609375 107.191406 86.859375 C 107.214844 87.105469 107.28125 87.34375 107.390625 87.570312 L 111.480469 96.9375 L 93.910156 88.976562 C 93.648438 88.847656 93.367188 88.78125 93.074219 88.773438 C 90.683594 88.769531 88.324219 88.5 85.996094 87.957031 C 99.597656 80.671875 108.496094 68.609375 109.375 55.304688 C 109.679688 50.425781 108.957031 45.707031 107.207031 41.140625 C 108.261719 41.636719 109.277344 42.199219 110.25 42.832031 C 111.226562 43.464844 112.15625 44.164062 113.035156 44.925781 C 113.914062 45.683594 114.734375 46.503906 115.5 47.378906 C 116.265625 48.253906 116.96875 49.175781 117.605469 50.148438 C 118.242188 51.121094 118.808594 52.132812 119.304688 53.183594 C 119.800781 54.234375 120.222656 55.3125 120.570312 56.421875 C 120.917969 57.53125 121.1875 58.65625 121.378906 59.804688 C 121.570312 60.949219 121.679688 62.101562 121.710938 63.261719 C 121.6875 64.382812 121.589844 65.496094 121.417969 66.601562 C 121.246094 67.710938 121 68.800781 120.679688 69.875 C 120.359375 70.949219 119.96875 71.996094 119.507812 73.015625 C 119.046875 74.039062 118.519531 75.023438 117.925781 75.972656 C 117.332031 76.925781 116.675781 77.832031 115.957031 78.691406 C 115.242188 79.554688 114.472656 80.367188 113.644531 81.125 C 112.820312 81.882812 111.945312 82.582031 111.027344 83.226562 C 110.105469 83.867188 109.144531 84.445312 108.148438 84.957031 Z M 108.128906 84.957031 " fill-opacity="1" fill-rule="nonzero"/></g><path fill="#ffffff" d="M 30.6875 43.875 C 30.082031 43.875 29.484375 43.933594 28.890625 44.050781 C 28.296875 44.171875 27.722656 44.34375 27.164062 44.574219 C 26.605469 44.804688 26.074219 45.089844 25.574219 45.425781 C 25.070312 45.757812 24.605469 46.140625 24.179688 46.566406 C 23.75 46.992188 23.371094 47.457031 23.035156 47.957031 C 22.699219 48.457031 22.414062 48.988281 22.183594 49.546875 C 21.953125 50.101562 21.777344 50.675781 21.660156 51.269531 C 21.542969 51.859375 21.480469 52.457031 21.480469 53.058594 C 21.480469 53.664062 21.542969 54.261719 21.660156 54.851562 C 21.777344 55.441406 21.953125 56.015625 22.183594 56.574219 C 22.414062 57.132812 22.699219 57.660156 23.035156 58.160156 C 23.371094 58.664062 23.75 59.125 24.179688 59.554688 C 24.605469 59.980469 25.070312 60.359375 25.574219 60.695312 C 26.074219 61.03125 26.605469 61.3125 27.164062 61.542969 C 27.722656 61.773438 28.296875 61.949219 28.890625 62.066406 C 29.484375 62.183594 30.082031 62.242188 30.6875 62.242188 C 31.292969 62.242188 31.890625 62.183594 32.484375 62.066406 C 33.074219 61.949219 33.652344 61.773438 34.210938 61.542969 C 34.769531 61.3125 35.296875 61.03125 35.800781 60.695312 C 36.304688 60.359375 36.769531 59.980469 37.195312 59.554688 C 37.621094 59.125 38.003906 58.664062 38.339844 58.160156 C 38.675781 57.660156 38.960938 57.132812 39.191406 56.574219 C 39.421875 56.015625 39.597656 55.441406 39.714844 54.851562 C 39.832031 54.261719 39.890625 53.664062 39.890625 53.058594 C 39.890625 52.457031 39.828125 51.859375 39.710938 51.269531 C 39.59375 50.679688 39.417969 50.105469 39.183594 49.546875 C 38.953125 48.992188 38.667969 48.464844 38.332031 47.960938 C 38 47.460938 37.617188 46.996094 37.191406 46.570312 C 36.761719 46.144531 36.296875 45.765625 35.796875 45.429688 C 35.292969 45.09375 34.765625 44.8125 34.207031 44.582031 C 33.648438 44.347656 33.074219 44.175781 32.480469 44.054688 C 31.890625 43.9375 31.289062 43.878906 30.6875 43.875 Z M 30.6875 58.160156 C 30.351562 58.160156 30.019531 58.128906 29.6875 58.0625 C 29.359375 58 29.039062 57.902344 28.730469 57.773438 C 28.417969 57.644531 28.125 57.488281 27.847656 57.300781 C 27.566406 57.117188 27.308594 56.902344 27.070312 56.667969 C 26.832031 56.429688 26.621094 56.171875 26.433594 55.894531 C 26.25 55.617188 26.089844 55.320312 25.960938 55.011719 C 25.835938 54.703125 25.738281 54.382812 25.671875 54.054688 C 25.605469 53.726562 25.574219 53.394531 25.574219 53.058594 C 25.574219 52.726562 25.605469 52.394531 25.671875 52.0625 C 25.738281 51.734375 25.835938 51.417969 25.960938 51.105469 C 26.089844 50.796875 26.25 50.503906 26.433594 50.226562 C 26.621094 49.945312 26.832031 49.6875 27.070312 49.453125 C 27.308594 49.214844 27.566406 49.003906 27.847656 48.816406 C 28.125 48.632812 28.417969 48.472656 28.730469 48.347656 C 29.039062 48.21875 29.359375 48.121094 29.6875 48.054688 C 30.019531 47.992188 30.351562 47.957031 30.6875 47.957031 C 31.023438 47.957031 31.355469 47.992188 31.683594 48.054688 C 32.015625 48.121094 32.332031 48.21875 32.644531 48.347656 C 32.953125 48.472656 33.25 48.632812 33.527344 48.816406 C 33.808594 49.003906 34.066406 49.214844 34.304688 49.453125 C 34.539062 49.6875 34.753906 49.945312 34.9375 50.226562 C 35.125 50.503906 35.28125 50.796875 35.410156 51.105469 C 35.539062 51.417969 35.636719 51.734375 35.703125 52.0625 C 35.769531 52.394531 35.800781 52.726562 35.800781 53.058594 C 35.800781 53.394531 35.769531 53.726562 35.703125 54.054688 C 35.636719 54.382812 35.539062 54.703125 35.410156 55.011719 C 35.28125 55.320312 35.125 55.617188 34.9375 55.894531 C 34.753906 56.171875 34.539062 56.429688 34.304688 56.667969 C 34.066406 56.902344 33.808594 57.117188 33.527344 57.300781 C 33.25 57.488281 32.953125 57.644531 32.644531 57.773438 C 32.332031 57.902344 32.015625 58 31.683594 58.0625 C 31.355469 58.128906 31.023438 58.160156 30.6875 58.160156 Z M 30.6875 58.160156 " fill-opacity="1" fill-rule="nonzero"/><path fill="#ffffff" d="M 57.277344 43.875 C 56.671875 43.875 56.074219 43.933594 55.480469 44.050781 C 54.890625 44.171875 54.3125 44.34375 53.753906 44.574219 C 53.195312 44.804688 52.667969 45.089844 52.164062 45.425781 C 51.660156 45.757812 51.195312 46.140625 50.769531 46.566406 C 50.34375 46.992188 49.960938 47.457031 49.625 47.957031 C 49.289062 48.457031 49.003906 48.988281 48.773438 49.546875 C 48.542969 50.101562 48.367188 50.675781 48.25 51.269531 C 48.132812 51.859375 48.074219 52.457031 48.074219 53.058594 C 48.074219 53.664062 48.132812 54.261719 48.25 54.851562 C 48.367188 55.441406 48.542969 56.015625 48.773438 56.574219 C 49.003906 57.132812 49.289062 57.660156 49.625 58.160156 C 49.960938 58.664062 50.34375 59.125 50.769531 59.554688 C 51.195312 59.980469 51.660156 60.359375 52.164062 60.695312 C 52.667969 61.03125 53.195312 61.3125 53.753906 61.542969 C 54.3125 61.773438 54.890625 61.949219 55.480469 62.066406 C 56.074219 62.183594 56.671875 62.242188 57.277344 62.242188 C 57.882812 62.242188 58.480469 62.183594 59.074219 62.066406 C 59.667969 61.949219 60.242188 61.773438 60.800781 61.542969 C 61.359375 61.3125 61.890625 61.03125 62.390625 60.695312 C 62.894531 60.359375 63.359375 59.980469 63.785156 59.554688 C 64.214844 59.125 64.59375 58.664062 64.929688 58.160156 C 65.265625 57.660156 65.550781 57.132812 65.78125 56.574219 C 66.011719 56.015625 66.1875 55.441406 66.304688 54.851562 C 66.421875 54.261719 66.480469 53.664062 66.480469 53.058594 C 66.480469 52.457031 66.421875 51.859375 66.300781 51.269531 C 66.183594 50.679688 66.007812 50.105469 65.777344 49.546875 C 65.542969 48.992188 65.261719 48.464844 64.925781 47.960938 C 64.589844 47.460938 64.207031 46.996094 63.78125 46.570312 C 63.351562 46.144531 62.890625 45.765625 62.386719 45.429688 C 61.882812 45.09375 61.355469 44.8125 60.796875 44.582031 C 60.238281 44.347656 59.664062 44.175781 59.070312 44.054688 C 58.480469 43.9375 57.882812 43.878906 57.277344 43.875 Z M 57.277344 58.160156 C 56.941406 58.160156 56.609375 58.128906 56.28125 58.0625 C 55.949219 58 55.632812 57.902344 55.320312 57.773438 C 55.011719 57.644531 54.714844 57.488281 54.4375 57.300781 C 54.15625 57.117188 53.898438 56.902344 53.660156 56.667969 C 53.425781 56.429688 53.210938 56.171875 53.027344 55.894531 C 52.839844 55.617188 52.683594 55.320312 52.554688 55.011719 C 52.425781 54.703125 52.328125 54.382812 52.261719 54.054688 C 52.195312 53.726562 52.164062 53.394531 52.164062 53.058594 C 52.164062 52.726562 52.195312 52.394531 52.261719 52.0625 C 52.328125 51.734375 52.425781 51.417969 52.554688 51.105469 C 52.683594 50.796875 52.839844 50.503906 53.027344 50.226562 C 53.210938 49.945312 53.425781 49.6875 53.660156 49.453125 C 53.898438 49.214844 54.15625 49.003906 54.4375 48.816406 C 54.714844 48.632812 55.011719 48.472656 55.320312 48.347656 C 55.632812 48.21875 55.949219 48.121094 56.28125 48.054688 C 56.609375 47.992188 56.941406 47.957031 57.277344 47.957031 C 57.613281 47.957031 57.945312 47.992188 58.277344 48.054688 C 58.605469 48.121094 58.925781 48.21875 59.234375 48.347656 C 59.542969 48.472656 59.839844 48.632812 60.117188 48.816406 C 60.398438 49.003906 60.65625 49.214844 60.894531 49.453125 C 61.132812 49.6875 61.34375 49.945312 61.53125 50.226562 C 61.714844 50.503906 61.875 50.796875 62.003906 51.105469 C 62.128906 51.417969 62.226562 51.734375 62.292969 52.0625 C 62.359375 52.394531 62.390625 52.726562 62.390625 53.058594 C 62.390625 53.394531 62.359375 53.726562 62.292969 54.054688 C 62.226562 54.382812 62.128906 54.703125 62.003906 55.011719 C 61.875 55.320312 61.714844 55.617188 61.53125 55.894531 C 61.34375 56.171875 61.132812 56.429688 60.894531 56.667969 C 60.65625 56.902344 60.398438 57.117188 60.117188 57.300781 C 59.839844 57.488281 59.542969 57.644531 59.234375 57.773438 C 58.925781 57.902344 58.605469 58 58.277344 58.0625 C 57.945312 58.128906 57.613281 58.160156 57.277344 58.160156 Z M 57.277344 58.160156 " fill-opacity="1" fill-rule="nonzero"/><path fill="#ffffff" d="M 83.867188 43.875 C 83.265625 43.875 82.664062 43.933594 82.074219 44.050781 C 81.480469 44.171875 80.90625 44.34375 80.347656 44.574219 C 79.789062 44.804688 79.257812 45.089844 78.753906 45.425781 C 78.253906 45.757812 77.789062 46.140625 77.359375 46.566406 C 76.933594 46.992188 76.550781 47.457031 76.214844 47.957031 C 75.878906 48.457031 75.597656 48.988281 75.363281 49.546875 C 75.132812 50.101562 74.957031 50.675781 74.839844 51.269531 C 74.722656 51.859375 74.664062 52.457031 74.664062 53.058594 C 74.664062 53.664062 74.722656 54.261719 74.839844 54.851562 C 74.957031 55.441406 75.132812 56.015625 75.363281 56.574219 C 75.597656 57.132812 75.878906 57.660156 76.214844 58.160156 C 76.550781 58.664062 76.933594 59.125 77.359375 59.554688 C 77.789062 59.980469 78.253906 60.359375 78.753906 60.695312 C 79.257812 61.03125 79.789062 61.3125 80.347656 61.542969 C 80.90625 61.773438 81.480469 61.949219 82.074219 62.066406 C 82.664062 62.183594 83.265625 62.242188 83.867188 62.242188 C 84.472656 62.242188 85.070312 62.183594 85.664062 62.066406 C 86.257812 61.949219 86.832031 61.773438 87.390625 61.542969 C 87.949219 61.3125 88.480469 61.03125 88.984375 60.695312 C 89.484375 60.359375 89.949219 59.980469 90.378906 59.554688 C 90.804688 59.125 91.1875 58.664062 91.523438 58.160156 C 91.859375 57.660156 92.140625 57.132812 92.371094 56.574219 C 92.605469 56.015625 92.777344 55.441406 92.894531 54.851562 C 93.015625 54.261719 93.074219 53.664062 93.074219 53.058594 C 93.070312 52.457031 93.011719 51.859375 92.894531 51.269531 C 92.773438 50.679688 92.597656 50.105469 92.367188 49.546875 C 92.136719 48.992188 91.851562 48.464844 91.515625 47.960938 C 91.179688 47.460938 90.796875 46.996094 90.371094 46.570312 C 89.945312 46.144531 89.480469 45.765625 88.976562 45.429688 C 88.476562 45.09375 87.945312 44.8125 87.386719 44.582031 C 86.832031 44.347656 86.253906 44.175781 85.664062 44.054688 C 85.070312 43.9375 84.472656 43.878906 83.867188 43.875 Z M 83.867188 58.160156 C 83.53125 58.160156 83.199219 58.128906 82.871094 58.0625 C 82.542969 58 82.222656 57.902344 81.910156 57.773438 C 81.601562 57.644531 81.308594 57.488281 81.027344 57.300781 C 80.75 57.117188 80.488281 56.902344 80.253906 56.667969 C 80.015625 56.429688 79.804688 56.171875 79.617188 55.894531 C 79.429688 55.617188 79.273438 55.320312 79.144531 55.011719 C 79.015625 54.703125 78.917969 54.382812 78.851562 54.054688 C 78.789062 53.726562 78.753906 53.394531 78.753906 53.058594 C 78.753906 52.726562 78.789062 52.394531 78.851562 52.0625 C 78.917969 51.734375 79.015625 51.417969 79.144531 51.105469 C 79.273438 50.796875 79.429688 50.503906 79.617188 50.226562 C 79.804688 49.945312 80.015625 49.6875 80.253906 49.453125 C 80.488281 49.214844 80.75 49.003906 81.027344 48.816406 C 81.308594 48.632812 81.601562 48.472656 81.910156 48.347656 C 82.222656 48.21875 82.542969 48.121094 82.871094 48.054688 C 83.199219 47.992188 83.53125 47.957031 83.867188 47.957031 C 84.203125 47.957031 84.535156 47.992188 84.867188 48.054688 C 85.195312 48.121094 85.515625 48.21875 85.824219 48.347656 C 86.136719 48.472656 86.429688 48.632812 86.710938 48.816406 C 86.988281 49.003906 87.246094 49.214844 87.484375 49.453125 C 87.722656 49.6875 87.933594 49.945312 88.121094 50.226562 C 88.308594 50.503906 88.464844 50.796875 88.59375 51.105469 C 88.722656 51.417969 88.820312 51.734375 88.882812 52.0625 C 88.949219 52.394531 88.980469 52.726562 88.980469 53.058594 C 88.980469 53.394531 88.949219 53.726562 88.882812 54.054688 C 88.820312 54.382812 88.722656 54.703125 88.59375 55.011719 C 88.464844 55.320312 88.308594 55.617188 88.121094 55.894531 C 87.933594 56.171875 87.722656 56.429688 87.484375 56.667969 C 87.246094 56.902344 86.988281 57.117188 86.710938 57.300781 C 86.429688 57.488281 86.136719 57.644531 85.824219 57.773438 C 85.515625 57.902344 85.195312 58 84.867188 58.0625 C 84.535156 58.128906 84.203125 58.160156 83.867188 58.160156 Z M 83.867188 58.160156 " fill-opacity="1" fill-rule="nonzero"/></svg>