<svg xmlns="http://www.w3.org/2000/svg" xmlns:xlink="http://www.w3.org/1999/xlink" width="170" zoomAndPan="magnify" viewBox="0 0 127.5 127.499994" height="170" preserveAspectRatio="xMidYMid meet" version="1.0"><defs><clipPath id="70586a3c15"><path d="M 27.828125 20.851562 L 88.339844 20.851562 L 88.339844 127 L 27.828125 127 Z M 27.828125 20.851562 " clip-rule="nonzero"/></clipPath><clipPath id="ce0a1eeb1d"><path d="M 10.324219 0 L 117.488281 0 L 117.488281 127 L 10.324219 127 Z M 10.324219 0 " clip-rule="nonzero"/></clipPath></defs><g clip-path="url(#70586a3c15)"><path fill="#ffffff" d="M 71.105469 95.730469 C 67.117188 97.0625 63 95.832031 60.800781 94.921875 C 62.808594 90.90625 65.441406 88.355469 68.636719 87.328125 C 72.59375 86.054688 76.640625 87.363281 78.78125 88.308594 C 76.832031 92.1875 74.253906 94.679688 71.105469 95.730469 Z M 35.164062 50.371094 C 32.046875 44.394531 31.917969 39.878906 31.949219 38.636719 C 31.949219 38.613281 31.953125 38.589844 31.949219 38.566406 C 31.921875 34.808594 33.097656 31.535156 35.351562 29.105469 C 37.34375 26.953125 40.132812 25.515625 43.199219 25.058594 C 43.96875 24.945312 44.707031 24.890625 45.417969 24.890625 C 51.253906 24.890625 54.996094 28.574219 56.199219 32.601562 C 56.453125 33.449219 57.234375 34.027344 58.121094 34.027344 C 59.003906 34.027344 59.785156 33.449219 60.039062 32.601562 C 61.390625 28.078125 65.945312 23.984375 73.078125 25.050781 C 78.289062 25.828125 84.351562 29.832031 84.289062 38.566406 C 84.289062 38.589844 84.289062 38.613281 84.289062 38.636719 C 84.324219 39.878906 84.191406 44.402344 81.082031 50.371094 C 79.175781 54.035156 76.488281 57.574219 73.097656 60.882812 C 69.078125 64.804688 64.046875 68.429688 58.128906 71.660156 C 52.207031 68.429688 47.175781 64.804688 43.15625 60.882812 C 39.761719 57.574219 37.074219 54.035156 35.164062 50.371094 Z M 45.132812 95.730469 C 41.984375 94.679688 39.40625 92.1875 37.457031 88.308594 C 39.601562 87.363281 43.644531 86.058594 47.601562 87.328125 C 50.796875 88.355469 53.429688 90.90625 55.4375 94.921875 C 53.238281 95.832031 49.121094 97.0625 45.132812 95.730469 Z M 83.246094 88.164062 C 83.625 87.261719 83.289062 86.222656 82.457031 85.703125 C 82.15625 85.515625 74.960938 81.121094 67.445312 83.519531 C 64.628906 84.414062 62.183594 86.121094 60.121094 88.609375 L 60.121094 75.125 C 66.332031 71.722656 71.636719 67.898438 75.898438 63.738281 C 79.59375 60.128906 82.535156 56.253906 84.636719 52.210938 C 88.160156 45.445312 88.328125 40.097656 88.292969 38.5625 C 88.355469 28.015625 80.996094 22.191406 73.667969 21.101562 C 69.980469 20.550781 66.257812 21.160156 63.1875 22.8125 C 61.101562 23.933594 59.394531 25.476562 58.121094 27.367188 C 56.847656 25.476562 55.144531 23.9375 53.066406 22.816406 C 50.003906 21.167969 46.289062 20.5625 42.605469 21.109375 C 35.261719 22.203125 27.886719 28.023438 27.945312 38.5625 C 27.910156 40.09375 28.078125 45.4375 31.609375 52.210938 C 33.714844 56.253906 36.660156 60.128906 40.355469 63.738281 C 44.617188 67.894531 49.914062 71.71875 56.117188 75.113281 L 56.117188 88.609375 C 54.054688 86.121094 51.609375 84.414062 48.796875 83.519531 C 41.277344 81.121094 34.082031 85.515625 33.78125 85.703125 C 32.949219 86.222656 32.613281 87.261719 32.992188 88.164062 C 35.484375 94.132812 39.152344 97.957031 43.898438 99.53125 C 45.601562 100.09375 47.292969 100.3125 48.898438 100.3125 C 51.726562 100.3125 54.273438 99.632812 56.117188 98.949219 L 56.117188 125.503906 C 56.117188 126.605469 57.015625 127.5 58.121094 127.5 C 59.226562 127.5 60.121094 126.605469 60.121094 125.503906 L 60.121094 98.949219 C 61.964844 99.632812 64.515625 100.3125 67.339844 100.3125 C 68.945312 100.3125 70.636719 100.09375 72.34375 99.53125 C 77.085938 97.957031 80.753906 94.132812 83.246094 88.164062 " fill-opacity="1" fill-rule="nonzero"/></g><g clip-path="url(#ce0a1eeb1d)"><path fill="#ffffff" d="M 113.207031 63.15625 C 112.34375 62.84375 111.179688 61.671875 110.085938 60.023438 C 107.867188 56.683594 106.863281 52.574219 107.257812 48.453125 C 108.136719 39.199219 106.0625 30.640625 101.089844 23.007812 C 101.085938 23.003906 101.085938 23 101.082031 23 C 100.605469 22.207031 97.292969 16.898438 91.195312 11.546875 C 87.386719 8.207031 83.269531 5.542969 78.960938 3.625 C 73.550781 1.21875 67.828125 0 61.953125 0 C 45.441406 0 30.199219 6.730469 20.136719 18.46875 C 15.464844 23.917969 12.308594 30.550781 11.003906 37.648438 C 9.710938 44.691406 10.273438 52.011719 12.636719 58.816406 L 20.96875 82.828125 C 20.984375 82.867188 20.996094 82.90625 21.011719 82.941406 C 21.035156 82.996094 23.230469 88.320312 24.722656 96.164062 C 26.089844 103.34375 27.136719 114.175781 24.351562 125.007812 C 24.074219 126.074219 24.71875 127.164062 25.792969 127.4375 C 26.863281 127.710938 27.953125 127.066406 28.230469 126 C 31.207031 114.417969 30.097656 102.921875 28.640625 95.316406 C 27.132812 87.457031 25.003906 82.125 24.734375 81.46875 L 16.421875 57.511719 C 14.285156 51.355469 13.773438 44.738281 14.941406 38.367188 C 16.117188 31.960938 18.96875 25.976562 23.179688 21.0625 C 32.480469 10.214844 46.613281 3.992188 61.953125 3.992188 C 67.234375 3.992188 72.382812 5.085938 77.257812 7.242188 C 81.183594 8.976562 84.949219 11.40625 88.449219 14.460938 C 94.46875 19.710938 97.648438 25.054688 97.679688 25.105469 C 97.710938 25.160156 97.746094 25.210938 97.78125 25.257812 C 102.214844 32.097656 104.058594 39.773438 103.269531 48.074219 C 102.789062 53.101562 104.023438 58.128906 106.746094 62.226562 C 108.386719 64.699219 110.097656 66.273438 111.832031 66.910156 C 113.628906 67.5625 113.585938 68.773438 113.394531 69.636719 C 113.054688 71.199219 111.71875 71.703125 109.042969 72.191406 C 108.507812 72.289062 108.003906 72.382812 107.550781 72.511719 C 106.273438 72.878906 105.269531 73.828125 104.863281 75.058594 C 104.449219 76.304688 104.699219 77.695312 105.527344 78.773438 C 105.742188 79.058594 106.101562 79.714844 106.148438 80.964844 C 105.921875 81.359375 104.539062 82.539062 100.558594 83.589844 C 100.550781 83.589844 100.542969 83.59375 100.535156 83.59375 C 99.605469 83.851562 98.910156 84.597656 98.726562 85.542969 C 98.542969 86.488281 98.90625 87.433594 99.660156 88.007812 C 100.480469 88.640625 101.429688 89.128906 102.347656 89.605469 C 103.085938 89.988281 104.304688 90.621094 104.574219 90.992188 C 104.582031 91.058594 104.585938 91.113281 104.589844 91.15625 C 104.53125 91.203125 104.457031 91.261719 104.398438 91.308594 C 104.023438 91.609375 103.457031 92.0625 102.925781 92.816406 C 101.648438 94.628906 102.066406 96.527344 102.398438 98.058594 C 102.453125 98.3125 102.507812 98.554688 102.554688 98.796875 C 102.699219 99.566406 102.527344 100.347656 102.066406 100.992188 C 101.59375 101.65625 100.886719 102.085938 100.070312 102.207031 C 98.449219 102.445312 96.453125 102.507812 94.339844 102.574219 C 89.078125 102.742188 83.113281 102.929688 79.429688 105.988281 C 73.003906 111.335938 72.285156 119.242188 72.375 125.53125 C 72.390625 126.625 73.28125 127.5 74.375 127.5 C 74.382812 127.5 74.394531 127.5 74.402344 127.5 C 75.507812 127.484375 76.394531 126.578125 76.378906 125.476562 C 76.261719 117.339844 77.941406 112.425781 81.992188 109.054688 C 84.617188 106.875 89.847656 106.710938 94.46875 106.566406 C 96.699219 106.496094 98.808594 106.429688 100.660156 106.15625 C 102.535156 105.878906 104.234375 104.839844 105.332031 103.304688 C 106.429688 101.765625 106.839844 99.902344 106.488281 98.050781 C 106.433594 97.757812 106.371094 97.476562 106.3125 97.207031 C 106.054688 96.039062 105.964844 95.449219 106.203125 95.109375 C 106.40625 94.824219 106.625 94.648438 106.90625 94.421875 C 107.863281 93.65625 108.859375 92.648438 108.527344 90.34375 C 108.242188 88.386719 106.527344 87.296875 104.828125 86.394531 C 108.378906 84.976562 110.203125 83.125 110.152344 80.964844 C 110.101562 78.652344 109.34375 77.183594 108.710938 76.355469 C 108.707031 76.347656 108.703125 76.34375 108.699219 76.335938 C 108.960938 76.265625 109.351562 76.195312 109.761719 76.121094 C 112.0625 75.703125 116.34375 74.921875 117.308594 70.488281 C 118.042969 67.152344 116.472656 64.34375 113.207031 63.15625 " fill-opacity="1" fill-rule="nonzero"/></g></svg>