<svg xmlns="http://www.w3.org/2000/svg" xmlns:xlink="http://www.w3.org/1999/xlink" width="170" zoomAndPan="magnify" viewBox="0 0 127.5 127.499994" height="170" preserveAspectRatio="xMidYMid meet" version="1.0"><defs><clipPath id="id1"><path d="M 61 2.699219 L 66 2.699219 L 66 19 L 61 19 Z M 61 2.699219 " clip-rule="nonzero"/></clipPath><clipPath id="id2"><path d="M 2.699219 51 L 19 51 L 19 58 L 2.699219 58 Z M 2.699219 51 " clip-rule="nonzero"/></clipPath><clipPath id="id3"><path d="M 2.699219 70 L 19 70 L 19 77 L 2.699219 77 Z M 2.699219 70 " clip-rule="nonzero"/></clipPath><clipPath id="id4"><path d="M 61 109 L 66 109 L 66 124.949219 L 61 124.949219 Z M 61 109 " clip-rule="nonzero"/></clipPath><clipPath id="id5"><path d="M 109 70 L 124.949219 70 L 124.949219 76 L 109 76 Z M 109 70 " clip-rule="nonzero"/></clipPath><clipPath id="id6"><path d="M 109 51 L 124.949219 51 L 124.949219 58 L 109 58 Z M 109 51 " clip-rule="nonzero"/></clipPath></defs><g clip-path="url(#id1)"><path fill="#ffffff" d="M 65.730469 16.21875 L 65.730469 4.792969 C 65.730469 3.746094 64.871094 2.890625 63.824219 2.890625 C 62.777344 2.890625 61.921875 3.746094 61.921875 4.792969 L 61.921875 16.21875 C 61.921875 17.265625 62.777344 18.125 63.824219 18.125 C 64.871094 18.125 65.730469 17.265625 65.730469 16.21875 Z M 65.730469 16.21875 " fill-opacity="1" fill-rule="nonzero"/></g><path fill="#ffffff" d="M 55.445312 18.886719 C 55.542969 18.886719 55.636719 18.886719 55.828125 18.886719 C 56.875 18.695312 57.542969 17.742188 57.351562 16.695312 L 56.683594 12.984375 C 56.492188 11.933594 55.542969 11.269531 54.496094 11.460938 C 53.445312 11.648438 52.78125 12.601562 52.972656 13.648438 L 53.636719 17.363281 C 53.734375 18.21875 54.496094 18.886719 55.445312 18.886719 Z M 55.445312 18.886719 " fill-opacity="1" fill-rule="nonzero"/><path fill="#ffffff" d="M 39.355469 18.316406 C 38.785156 17.363281 37.640625 17.078125 36.785156 17.648438 C 35.832031 18.21875 35.546875 19.363281 36.117188 20.21875 L 38.023438 23.550781 C 38.402344 24.121094 38.976562 24.503906 39.640625 24.503906 C 39.925781 24.503906 40.308594 24.40625 40.59375 24.21875 C 41.546875 23.644531 41.832031 22.503906 41.261719 21.648438 Z M 39.355469 18.316406 " fill-opacity="1" fill-rule="nonzero"/><path fill="#ffffff" d="M 26.789062 35.167969 C 27.359375 35.167969 27.835938 34.976562 28.214844 34.5 C 28.882812 33.644531 28.789062 32.5 27.929688 31.835938 L 24.980469 29.359375 C 24.121094 28.691406 22.980469 28.789062 22.3125 29.644531 C 21.648438 30.5 21.742188 31.644531 22.597656 32.308594 L 25.550781 34.785156 C 25.929688 34.976562 26.40625 35.167969 26.789062 35.167969 Z M 26.789062 35.167969 " fill-opacity="1" fill-rule="nonzero"/><path fill="#ffffff" d="M 19.078125 45.734375 L 15.457031 44.402344 C 14.507812 44.019531 13.363281 44.59375 12.984375 45.542969 C 12.601562 46.496094 13.171875 47.640625 14.125 48.019531 L 17.742188 49.351562 C 17.933594 49.449219 18.21875 49.449219 18.410156 49.449219 C 19.171875 49.449219 19.933594 48.972656 20.21875 48.210938 C 20.503906 47.164062 20.027344 46.117188 19.078125 45.734375 Z M 19.078125 45.734375 " fill-opacity="1" fill-rule="nonzero"/><path fill="#ffffff" d="M 11.648438 61.921875 C 10.601562 61.921875 9.746094 62.777344 9.746094 63.824219 C 9.746094 64.871094 10.601562 65.730469 11.648438 65.730469 L 15.554688 65.730469 C 16.601562 65.730469 17.457031 64.871094 17.457031 63.824219 C 17.457031 62.777344 16.601562 61.921875 15.554688 61.921875 Z M 11.648438 61.921875 " fill-opacity="1" fill-rule="nonzero"/><path fill="#ffffff" d="M 17.742188 78.296875 L 14.125 79.628906 C 13.171875 80.011719 12.601562 81.058594 12.984375 82.105469 C 13.269531 82.867188 14.03125 83.34375 14.792969 83.34375 C 14.980469 83.34375 15.269531 83.34375 15.457031 83.246094 L 19.078125 81.914062 C 20.027344 81.535156 20.597656 80.488281 20.21875 79.441406 C 19.835938 78.488281 18.789062 77.917969 17.742188 78.296875 Z M 17.742188 78.296875 " fill-opacity="1" fill-rule="nonzero"/><path fill="#ffffff" d="M 25.074219 98.386719 L 28.027344 95.910156 C 28.882812 95.246094 28.976562 94.007812 28.3125 93.246094 C 27.644531 92.386719 26.40625 92.292969 25.644531 92.960938 L 22.695312 95.433594 C 21.835938 96.101562 21.742188 97.339844 22.410156 98.101562 C 22.789062 98.578125 23.359375 98.765625 23.835938 98.765625 C 24.21875 98.765625 24.695312 98.671875 25.074219 98.386719 Z M 25.074219 98.386719 " fill-opacity="1" fill-rule="nonzero"/><path fill="#ffffff" d="M 40.59375 103.433594 C 39.640625 102.859375 38.5 103.242188 38.023438 104.097656 L 36.117188 107.429688 C 35.546875 108.382812 35.929688 109.527344 36.785156 110.003906 C 37.070312 110.191406 37.453125 110.289062 37.738281 110.289062 C 38.402344 110.289062 39.070312 109.90625 39.355469 109.335938 L 41.261719 106.003906 C 41.832031 105.144531 41.546875 103.910156 40.59375 103.433594 Z M 40.59375 103.433594 " fill-opacity="1" fill-rule="nonzero"/><path fill="#ffffff" d="M 55.730469 108.859375 C 54.683594 108.667969 53.734375 109.335938 53.542969 110.382812 L 52.875 114.097656 C 52.683594 115.144531 53.351562 116.09375 54.398438 116.285156 C 54.496094 116.285156 54.589844 116.285156 54.78125 116.285156 C 55.730469 116.285156 56.492188 115.621094 56.683594 114.761719 L 57.351562 111.050781 C 57.445312 110.003906 56.78125 109.050781 55.730469 108.859375 Z M 55.730469 108.859375 " fill-opacity="1" fill-rule="nonzero"/><path fill="#ffffff" d="M 74.109375 110.382812 C 73.917969 109.335938 72.964844 108.667969 71.917969 108.859375 C 70.871094 109.050781 70.203125 110.003906 70.394531 111.050781 L 71.0625 114.761719 C 71.25 115.714844 72.011719 116.285156 72.964844 116.285156 C 73.058594 116.285156 73.15625 116.285156 73.347656 116.285156 C 74.394531 116.09375 75.058594 115.144531 74.871094 114.097656 Z M 74.109375 110.382812 " fill-opacity="1" fill-rule="nonzero"/><path fill="#ffffff" d="M 89.628906 104.097656 C 89.054688 103.148438 87.914062 102.859375 87.054688 103.433594 C 86.105469 104.003906 85.820312 105.144531 86.390625 106.003906 L 88.292969 109.335938 C 88.675781 109.90625 89.246094 110.289062 89.914062 110.289062 C 90.199219 110.289062 90.578125 110.191406 90.863281 110.003906 C 91.816406 109.429688 92.101562 108.289062 91.53125 107.429688 Z M 89.628906 104.097656 " fill-opacity="1" fill-rule="nonzero"/><path fill="#ffffff" d="M 102.097656 92.960938 C 101.242188 92.292969 100.101562 92.386719 99.433594 93.246094 C 98.765625 94.101562 98.863281 95.246094 99.71875 95.910156 L 102.671875 98.386719 C 103.050781 98.671875 103.433594 98.863281 103.910156 98.863281 C 104.480469 98.863281 104.957031 98.671875 105.335938 98.195312 C 106.003906 97.339844 105.90625 96.195312 105.050781 95.53125 Z M 102.097656 92.960938 " fill-opacity="1" fill-rule="nonzero"/><path fill="#ffffff" d="M 107.429688 79.441406 C 107.050781 80.390625 107.621094 81.535156 108.574219 81.914062 L 112.191406 83.246094 C 112.382812 83.34375 112.667969 83.34375 112.859375 83.34375 C 113.621094 83.34375 114.382812 82.867188 114.667969 82.105469 C 115.046875 81.152344 114.476562 80.011719 113.523438 79.628906 L 109.90625 78.296875 C 108.859375 77.917969 107.8125 78.488281 107.429688 79.441406 Z M 107.429688 79.441406 " fill-opacity="1" fill-rule="nonzero"/><path fill="#ffffff" d="M 116 65.730469 C 117.046875 65.730469 117.90625 64.871094 117.90625 63.824219 C 117.90625 62.777344 117.046875 61.921875 116 61.921875 L 112.097656 61.921875 C 111.050781 61.921875 110.191406 62.777344 110.191406 63.824219 C 110.191406 64.871094 111.050781 65.730469 112.097656 65.730469 Z M 116 65.730469 " fill-opacity="1" fill-rule="nonzero"/><path fill="#ffffff" d="M 113.523438 48.019531 C 114.476562 47.640625 115.046875 46.59375 114.667969 45.542969 C 114.285156 44.59375 113.238281 44.019531 112.191406 44.402344 L 108.574219 45.734375 C 107.621094 46.117188 107.050781 47.164062 107.429688 48.210938 C 107.71875 48.972656 108.480469 49.449219 109.242188 49.449219 C 109.429688 49.449219 109.714844 49.449219 109.90625 49.351562 Z M 113.523438 48.019531 " fill-opacity="1" fill-rule="nonzero"/><path fill="#ffffff" d="M 102.574219 29.261719 L 99.625 31.738281 C 98.765625 32.40625 98.671875 33.644531 99.339844 34.40625 C 99.71875 34.882812 100.289062 35.070312 100.765625 35.070312 C 101.148438 35.070312 101.625 34.882812 102.003906 34.59375 L 104.957031 32.121094 C 105.8125 31.453125 105.90625 30.214844 105.242188 29.453125 C 104.574219 28.789062 103.433594 28.597656 102.574219 29.261719 Z M 102.574219 29.261719 " fill-opacity="1" fill-rule="nonzero"/><path fill="#ffffff" d="M 90.863281 17.648438 C 89.914062 17.078125 88.769531 17.457031 88.292969 18.316406 L 86.390625 21.648438 C 85.820312 22.597656 86.199219 23.742188 87.054688 24.21875 C 87.34375 24.40625 87.722656 24.503906 88.007812 24.503906 C 88.675781 24.503906 89.339844 24.121094 89.628906 23.550781 L 91.53125 20.21875 C 92.101562 19.363281 91.816406 18.21875 90.863281 17.648438 Z M 90.863281 17.648438 " fill-opacity="1" fill-rule="nonzero"/><path fill="#ffffff" d="M 72.203125 18.886719 C 73.15625 18.886719 73.917969 18.21875 74.109375 17.363281 L 74.773438 13.648438 C 74.964844 12.601562 74.296875 11.648438 73.25 11.460938 C 72.203125 11.269531 71.25 11.933594 71.0625 12.984375 L 70.394531 16.695312 C 70.203125 17.742188 70.871094 18.695312 71.917969 18.886719 C 72.011719 18.886719 72.109375 18.886719 72.203125 18.886719 Z M 72.203125 18.886719 " fill-opacity="1" fill-rule="nonzero"/><path fill="#ffffff" d="M 47.257812 20.980469 C 47.449219 20.980469 47.734375 20.980469 47.925781 20.886719 C 48.878906 20.503906 49.449219 19.457031 49.066406 18.410156 L 45.070312 7.652344 C 44.6875 6.699219 43.640625 6.128906 42.59375 6.507812 C 41.640625 6.890625 41.070312 7.9375 41.449219 8.984375 L 45.449219 19.742188 C 45.832031 20.503906 46.496094 20.980469 47.257812 20.980469 Z M 47.257812 20.980469 " fill-opacity="1" fill-rule="nonzero"/><path fill="#ffffff" d="M 26.789062 17.363281 C 26.121094 16.601562 24.882812 16.503906 24.121094 17.171875 C 23.359375 17.839844 23.265625 19.074219 23.933594 19.835938 L 31.359375 28.597656 C 31.738281 29.074219 32.308594 29.261719 32.785156 29.261719 C 33.261719 29.261719 33.644531 29.074219 34.023438 28.789062 C 34.785156 28.121094 34.882812 26.882812 34.214844 26.121094 Z M 26.789062 17.363281 " fill-opacity="1" fill-rule="nonzero"/><path fill="#ffffff" d="M 10.222656 33.359375 C 9.746094 34.308594 10.03125 35.453125 10.984375 35.929688 L 21.074219 41.640625 C 21.359375 41.832031 21.742188 41.925781 22.027344 41.925781 C 22.695312 41.925781 23.359375 41.546875 23.644531 40.972656 C 24.121094 40.023438 23.835938 38.878906 22.882812 38.402344 L 12.792969 32.691406 C 11.933594 32.121094 10.792969 32.5 10.222656 33.359375 Z M 10.222656 33.359375 " fill-opacity="1" fill-rule="nonzero"/><g clip-path="url(#id2)"><path fill="#ffffff" d="M 2.890625 53.257812 C 2.699219 54.304688 3.460938 55.257812 4.507812 55.445312 L 15.933594 57.445312 C 16.03125 57.445312 16.125 57.445312 16.21875 57.445312 C 17.171875 57.445312 17.933594 56.78125 18.125 55.828125 C 18.316406 54.78125 17.648438 53.828125 16.601562 53.636719 L 5.175781 51.636719 C 4.128906 51.542969 3.082031 52.210938 2.890625 53.257812 Z M 2.890625 53.257812 " fill-opacity="1" fill-rule="nonzero"/></g><g clip-path="url(#id3)"><path fill="#ffffff" d="M 18.125 71.726562 C 17.933594 70.679688 16.980469 70.011719 15.933594 70.203125 L 4.507812 72.203125 C 3.460938 72.394531 2.699219 73.347656 2.890625 74.394531 C 3.082031 75.34375 3.84375 76.011719 4.792969 76.011719 C 4.890625 76.011719 4.984375 76.011719 5.082031 76.011719 L 16.503906 74.011719 C 17.554688 73.820312 18.316406 72.773438 18.125 71.726562 Z M 18.125 71.726562 " fill-opacity="1" fill-rule="nonzero"/></g><path fill="#ffffff" d="M 23.644531 86.675781 C 23.171875 85.722656 21.933594 85.4375 21.074219 85.914062 L 10.984375 91.625 C 10.03125 92.101562 9.746094 93.339844 10.222656 94.195312 C 10.601562 94.769531 11.171875 95.148438 11.839844 95.148438 C 12.125 95.148438 12.507812 95.054688 12.792969 94.863281 L 22.882812 89.152344 C 23.835938 88.769531 24.121094 87.628906 23.644531 86.675781 Z M 23.644531 86.675781 " fill-opacity="1" fill-rule="nonzero"/><path fill="#ffffff" d="M 31.261719 99.054688 L 23.835938 107.8125 C 23.171875 108.574219 23.265625 109.8125 24.027344 110.476562 C 24.40625 110.765625 24.789062 110.953125 25.265625 110.953125 C 25.835938 110.953125 26.3125 110.765625 26.691406 110.289062 L 34.121094 101.527344 C 34.785156 100.765625 34.691406 99.527344 33.929688 98.863281 C 33.167969 98.195312 32.023438 98.292969 31.261719 99.054688 Z M 31.261719 99.054688 " fill-opacity="1" fill-rule="nonzero"/><path fill="#ffffff" d="M 47.925781 106.765625 C 46.972656 106.382812 45.832031 106.859375 45.449219 107.90625 L 41.449219 118.667969 C 41.070312 119.617188 41.546875 120.761719 42.59375 121.140625 C 42.785156 121.238281 43.070312 121.238281 43.257812 121.238281 C 44.019531 121.238281 44.78125 120.761719 45.070312 120 L 49.066406 109.242188 C 49.449219 108.191406 48.972656 107.144531 47.925781 106.765625 Z M 47.925781 106.765625 " fill-opacity="1" fill-rule="nonzero"/><g clip-path="url(#id4)"><path fill="#ffffff" d="M 63.824219 109.527344 C 62.777344 109.527344 61.921875 110.382812 61.921875 111.429688 L 61.921875 122.855469 C 61.921875 123.902344 62.777344 124.757812 63.824219 124.757812 C 64.871094 124.757812 65.730469 123.902344 65.730469 122.855469 L 65.730469 111.429688 C 65.730469 110.382812 64.871094 109.527344 63.824219 109.527344 Z M 63.824219 109.527344 " fill-opacity="1" fill-rule="nonzero"/></g><path fill="#ffffff" d="M 82.105469 107.90625 C 81.722656 106.957031 80.675781 106.382812 79.628906 106.765625 C 78.679688 107.144531 78.105469 108.191406 78.488281 109.242188 L 82.484375 120 C 82.773438 120.761719 83.535156 121.238281 84.296875 121.238281 C 84.484375 121.238281 84.769531 121.238281 84.960938 121.140625 C 85.914062 120.761719 86.484375 119.714844 86.105469 118.667969 Z M 82.105469 107.90625 " fill-opacity="1" fill-rule="nonzero"/><path fill="#ffffff" d="M 96.386719 99.054688 C 95.71875 98.292969 94.484375 98.195312 93.722656 98.863281 C 92.960938 99.527344 92.863281 100.765625 93.53125 101.527344 L 100.957031 110.289062 C 101.335938 110.765625 101.910156 110.953125 102.386719 110.953125 C 102.859375 110.953125 103.242188 110.765625 103.621094 110.476562 C 104.382812 109.8125 104.480469 108.574219 103.8125 107.8125 Z M 96.386719 99.054688 " fill-opacity="1" fill-rule="nonzero"/><path fill="#ffffff" d="M 116.667969 91.722656 L 106.574219 86.007812 C 105.621094 85.53125 104.480469 85.820312 104.003906 86.769531 C 103.527344 87.722656 103.8125 88.867188 104.765625 89.339844 L 114.859375 95.054688 C 115.144531 95.246094 115.523438 95.339844 115.808594 95.339844 C 116.476562 95.339844 117.144531 94.957031 117.429688 94.386719 C 117.90625 93.339844 117.617188 92.199219 116.667969 91.722656 Z M 116.667969 91.722656 " fill-opacity="1" fill-rule="nonzero"/><g clip-path="url(#id5)"><path fill="#ffffff" d="M 123.140625 72.203125 L 111.714844 70.203125 C 110.667969 70.015625 109.714844 70.679688 109.527344 71.726562 C 109.335938 72.773438 110.003906 73.726562 111.050781 73.917969 L 122.472656 75.917969 C 122.570312 75.917969 122.664062 75.917969 122.761719 75.917969 C 123.710938 75.917969 124.472656 75.25 124.664062 74.296875 C 124.949219 73.347656 124.1875 72.394531 123.140625 72.203125 Z M 123.140625 72.203125 " fill-opacity="1" fill-rule="nonzero"/></g><g clip-path="url(#id6)"><path fill="#ffffff" d="M 122.570312 51.734375 L 111.144531 53.734375 C 110.097656 53.921875 109.429688 54.875 109.621094 55.921875 C 109.8125 56.875 110.574219 57.542969 111.523438 57.542969 C 111.621094 57.542969 111.714844 57.542969 111.8125 57.542969 L 123.234375 55.542969 C 124.285156 55.351562 124.949219 54.398438 124.757812 53.351562 C 124.570312 52.210938 123.523438 51.542969 122.570312 51.734375 Z M 122.570312 51.734375 " fill-opacity="1" fill-rule="nonzero"/></g><path fill="#ffffff" d="M 117.429688 33.359375 C 116.953125 32.40625 115.714844 32.121094 114.859375 32.597656 L 104.765625 38.308594 C 103.8125 38.785156 103.527344 40.023438 104.003906 40.878906 C 104.382812 41.449219 104.957031 41.832031 105.621094 41.832031 C 105.90625 41.832031 106.289062 41.734375 106.574219 41.546875 L 116.667969 35.832031 C 117.617188 35.453125 117.90625 34.308594 117.429688 33.359375 Z M 117.429688 33.359375 " fill-opacity="1" fill-rule="nonzero"/><path fill="#ffffff" d="M 100.863281 17.363281 L 93.433594 26.121094 C 92.769531 26.882812 92.863281 28.121094 93.625 28.789062 C 94.007812 29.074219 94.386719 29.261719 94.863281 29.261719 C 95.433594 29.261719 95.910156 29.074219 96.292969 28.597656 L 103.71875 19.835938 C 104.382812 19.074219 104.289062 17.839844 103.527344 17.171875 C 102.765625 16.503906 101.625 16.601562 100.863281 17.363281 Z M 100.863281 17.363281 " fill-opacity="1" fill-rule="nonzero"/><path fill="#ffffff" d="M 79.726562 20.886719 C 79.914062 20.980469 80.203125 20.980469 80.390625 20.980469 C 81.152344 20.980469 81.914062 20.503906 82.199219 19.742188 L 86.199219 8.984375 C 86.582031 8.03125 86.105469 6.890625 85.058594 6.507812 C 84.007812 6.222656 82.867188 6.699219 82.582031 7.652344 L 78.582031 18.410156 C 78.203125 19.457031 78.679688 20.503906 79.726562 20.886719 Z M 79.726562 20.886719 " fill-opacity="1" fill-rule="nonzero"/><path fill="#ffffff" d="M 80.773438 102.671875 L 80.773438 99.910156 C 80.773438 93.53125 82.390625 87.246094 85.4375 81.628906 C 88.769531 75.441406 90.578125 68.492188 90.578125 61.539062 L 90.578125 41.261719 C 90.578125 37.070312 87.152344 33.644531 82.960938 33.644531 C 81.535156 33.644531 80.105469 34.023438 78.964844 34.785156 C 78.203125 31.359375 75.15625 28.882812 71.535156 28.882812 C 69.632812 28.882812 67.917969 29.550781 66.585938 30.691406 C 65.253906 28.503906 62.871094 26.980469 60.113281 26.980469 C 56.207031 26.980469 52.972656 29.929688 52.589844 33.738281 C 51.449219 33.070312 50.113281 32.691406 48.6875 32.691406 C 44.496094 32.691406 41.070312 36.117188 41.070312 40.308594 L 41.070312 47.640625 C 38.59375 49.351562 36.976562 52.210938 36.976562 55.445312 L 36.976562 71.726562 C 36.976562 75.058594 38.59375 78.296875 41.261719 80.203125 L 46.78125 84.199219 C 48.496094 85.4375 49.542969 87.53125 49.542969 89.628906 L 49.542969 100.765625 C 49.542969 101.8125 50.398438 102.671875 51.449219 102.671875 C 52.496094 102.671875 53.351562 101.8125 53.351562 100.765625 L 53.351562 89.722656 C 53.351562 86.390625 51.734375 83.152344 49.066406 81.25 L 43.546875 77.15625 C 41.832031 75.917969 40.785156 73.820312 40.785156 71.726562 L 40.785156 55.542969 C 40.785156 52.398438 43.355469 49.828125 46.496094 49.828125 L 61.160156 49.828125 C 63.824219 49.828125 66.015625 52.019531 66.015625 54.683594 C 66.015625 57.351562 63.824219 59.539062 61.160156 59.539062 L 48.78125 59.539062 C 47.925781 59.539062 47.164062 60.113281 46.878906 61.0625 C 46.6875 61.921875 47.066406 62.777344 47.925781 63.160156 C 48.117188 63.253906 65.253906 71.632812 64.015625 82.773438 C 63.921875 83.820312 64.683594 84.769531 65.730469 84.867188 C 66.777344 84.960938 67.730469 84.199219 67.824219 83.152344 C 68.871094 74.203125 61.347656 67.253906 55.636719 63.253906 L 61.253906 63.253906 C 63.347656 63.253906 65.253906 62.492188 66.777344 61.253906 C 68.109375 62.398438 69.824219 63.0625 71.632812 63.0625 C 73.917969 63.0625 75.917969 62.015625 77.34375 60.492188 C 78.773438 62.109375 80.773438 63.0625 83.058594 63.0625 C 84.390625 63.0625 85.722656 62.683594 86.867188 62.015625 C 86.675781 68.203125 85.152344 74.296875 82.105469 79.726562 C 78.773438 85.914062 76.964844 92.863281 76.964844 99.816406 L 76.964844 102.574219 C 76.964844 103.621094 77.820312 104.480469 78.867188 104.480469 C 79.914062 104.480469 80.773438 103.71875 80.773438 102.671875 Z M 52.589844 46.019531 L 46.59375 46.019531 C 46.019531 46.019531 45.542969 46.117188 44.972656 46.210938 L 44.972656 40.308594 C 44.972656 38.214844 46.6875 36.5 48.78125 36.5 C 50.875 36.5 52.589844 38.214844 52.589844 40.308594 Z M 64.015625 36.5 L 64.015625 46.496094 C 63.160156 46.210938 62.207031 46.019531 61.253906 46.019531 L 56.398438 46.019531 L 56.398438 34.59375 C 56.398438 32.5 58.113281 30.785156 60.207031 30.785156 C 62.300781 30.785156 64.015625 32.5 64.015625 34.59375 Z M 75.441406 41.261719 L 75.441406 55.542969 C 75.441406 57.636719 73.726562 59.351562 71.632812 59.351562 C 70.679688 59.351562 69.726562 58.96875 69.0625 58.304688 C 69.632812 57.160156 69.917969 55.921875 69.917969 54.589844 C 69.917969 52.496094 69.15625 50.496094 67.824219 48.972656 L 67.824219 36.5 C 67.824219 34.40625 69.539062 32.691406 71.632812 32.691406 C 73.726562 32.691406 75.441406 34.40625 75.441406 36.5 Z M 83.058594 59.351562 C 80.960938 59.351562 79.25 57.636719 79.25 55.542969 L 79.25 41.261719 C 79.25 39.164062 80.960938 37.453125 83.058594 37.453125 C 85.152344 37.453125 86.867188 39.164062 86.867188 41.261719 L 86.867188 55.542969 C 86.867188 57.636719 85.152344 59.351562 83.058594 59.351562 Z M 83.058594 59.351562 " fill-opacity="1" fill-rule="nonzero"/></svg>