<svg xmlns="http://www.w3.org/2000/svg" xmlns:xlink="http://www.w3.org/1999/xlink" width="170" zoomAndPan="magnify" viewBox="0 0 127.5 127.499994" height="170" preserveAspectRatio="xMidYMid meet" version="1.0"><defs><clipPath id="id1"><path d="M 1 12.121094 L 126.886719 12.121094 L 126.886719 115.621094 L 1 115.621094 Z M 1 12.121094 " clip-rule="nonzero"/></clipPath></defs><path fill="#ffffff" d="M 69.449219 39.460938 L 70.035156 39.460938 C 72.28125 39.460938 74.429688 38.582031 75.992188 37.019531 C 77.652344 35.460938 78.53125 33.3125 78.53125 30.96875 L 78.53125 26.574219 C 78.53125 21.789062 74.820312 17.980469 70.035156 17.980469 L 69.449219 17.980469 C 67.203125 17.980469 65.058594 18.859375 63.496094 20.421875 C 61.933594 21.984375 60.957031 24.132812 60.957031 26.476562 L 60.957031 30.871094 C 60.957031 35.652344 64.667969 39.460938 69.449219 39.460938 Z M 64.863281 26.476562 C 64.863281 25.207031 65.351562 24.035156 66.230469 23.15625 C 67.105469 22.277344 68.277344 21.886719 69.449219 21.886719 L 70.035156 21.886719 C 72.574219 21.886719 74.625 23.9375 74.625 26.574219 L 74.625 30.96875 C 74.625 32.238281 74.136719 33.410156 73.257812 34.289062 C 72.378906 35.167969 71.207031 35.554688 70.035156 35.554688 L 69.449219 35.554688 C 66.816406 35.554688 64.863281 33.507812 64.863281 30.871094 Z M 64.863281 26.476562 " fill-opacity="1" fill-rule="nonzero"/><g clip-path="url(#id1)"><path fill="#ffffff" d="M 2.476562 115.425781 C 2.769531 115.523438 3.0625 115.621094 3.355469 115.621094 C 4.039062 115.621094 4.820312 115.230469 5.113281 114.546875 L 8.335938 107.8125 L 18 107.8125 C 18 107.8125 22.882812 107.8125 22.882812 107.8125 C 23.957031 107.8125 24.835938 106.933594 24.835938 105.859375 C 24.835938 104.785156 23.957031 103.90625 22.882812 103.90625 L 21.320312 103.90625 L 25.03125 97.070312 L 32.15625 97.070312 C 32.742188 97.070312 33.328125 96.777344 33.71875 96.289062 L 41.429688 86.332031 L 86.339844 86.332031 L 94.050781 96.289062 C 94.441406 96.777344 95.027344 97.070312 95.613281 97.070312 L 102.742188 97.070312 L 106.449219 103.90625 L 104.890625 103.90625 C 103.816406 103.90625 102.9375 104.785156 102.9375 105.859375 C 102.9375 106.933594 103.816406 107.8125 104.890625 107.8125 C 104.890625 107.8125 109.769531 107.8125 109.769531 107.8125 L 119.4375 107.8125 L 122.65625 114.546875 C 122.949219 115.230469 123.730469 115.621094 124.414062 115.621094 C 124.707031 115.621094 125 115.523438 125.292969 115.425781 C 126.269531 114.9375 126.660156 113.765625 126.171875 112.792969 L 122.460938 104.980469 C 122.167969 104.296875 121.484375 103.90625 120.703125 103.90625 L 110.941406 103.90625 L 105.671875 94.140625 C 105.28125 93.554688 104.695312 93.164062 103.914062 93.164062 L 96.589844 93.164062 C 96.589844 93.164062 88.878906 83.207031 88.878906 83.207031 C 88.488281 82.71875 87.902344 82.425781 87.316406 82.425781 L 83.507812 82.425781 C 83.800781 81.742188 83.898438 80.960938 83.898438 80.179688 L 84.09375 50.496094 L 96.296875 41.511719 C 98.835938 39.65625 99.714844 36.238281 98.25 33.410156 C 97.371094 31.75 95.808594 30.480469 93.953125 30.089844 C 92.199219 29.699219 90.246094 30.089844 88.683594 31.164062 L 77.261719 39.558594 C 76.382812 40.242188 76.1875 41.414062 76.871094 42.292969 C 77.554688 43.171875 78.726562 43.367188 79.605469 42.683594 L 91.027344 34.289062 C 91.613281 33.800781 92.394531 33.703125 93.175781 33.898438 C 93.953125 34.09375 94.539062 34.582031 94.832031 35.265625 C 95.417969 36.335938 95.027344 37.703125 94.050781 38.386719 L 81.066406 47.957031 C 80.578125 48.347656 80.285156 48.933594 80.285156 49.519531 L 80.089844 80.179688 C 80.089844 81.449219 79.019531 82.425781 77.847656 82.425781 L 77.554688 82.425781 C 76.285156 82.425781 75.308594 81.449219 75.308594 80.179688 L 75.308594 68.558594 C 75.308594 65.53125 73.160156 62.992188 70.230469 62.601562 C 69.742188 62.503906 69.253906 62.503906 68.765625 62.601562 C 65.839844 62.894531 63.59375 65.433594 63.59375 68.558594 L 63.59375 80.179688 C 63.59375 81.449219 62.617188 82.425781 61.347656 82.425781 C 60.761719 82.425781 60.175781 82.230469 59.6875 81.742188 C 59.296875 81.351562 59.003906 80.765625 59.003906 80.179688 L 59.101562 49.421875 C 59.101562 48.835938 58.808594 48.25 58.320312 47.859375 L 48.265625 40.339844 L 48.265625 33.996094 C 48.363281 33.996094 48.460938 34.09375 48.460938 34.09375 L 59.785156 42.585938 C 60.664062 43.269531 61.835938 43.074219 62.519531 42.195312 C 63.203125 41.316406 63.007812 40.144531 62.128906 39.460938 L 50.804688 30.96875 C 50.023438 30.382812 49.144531 29.992188 48.265625 29.796875 L 48.265625 14.074219 C 48.265625 13 47.386719 12.121094 46.3125 12.121094 C 45.238281 12.121094 44.359375 13 44.359375 14.074219 L 44.359375 18.078125 C 42.992188 18.566406 39.871094 19.054688 34.695312 18.078125 C 26.007812 16.320312 21.613281 15.734375 16.339844 17.589844 C 15.558594 17.882812 15.070312 18.566406 15.070312 19.445312 L 15.070312 40.828125 C 15.070312 41.511719 15.460938 42.097656 15.949219 42.488281 C 16.535156 42.878906 17.21875 42.878906 17.804688 42.585938 C 17.804688 42.585938 22.296875 40.632812 31.179688 42.683594 C 34.597656 43.464844 37.429688 43.757812 39.773438 43.757812 C 41.625 43.757812 43.1875 43.5625 44.359375 43.367188 L 44.359375 82.328125 C 44.359375 82.425781 44.359375 82.425781 44.359375 82.523438 C 44.359375 82.523438 40.457031 82.523438 40.457031 82.523438 C 39.871094 82.523438 39.285156 82.816406 38.894531 83.304688 L 31.179688 93.164062 L 23.859375 93.164062 C 23.175781 93.164062 22.492188 93.554688 22.101562 94.140625 L 16.828125 103.90625 L 7.066406 103.90625 C 6.285156 103.90625 5.601562 104.296875 5.308594 104.980469 L 1.597656 112.792969 C 1.113281 113.765625 1.5 114.9375 2.476562 115.425781 Z M 67.496094 80.179688 L 67.496094 68.558594 C 67.496094 67.484375 68.179688 66.605469 69.15625 66.507812 C 69.253906 66.507812 69.351562 66.507812 69.449219 66.507812 C 69.546875 66.507812 69.644531 66.507812 69.742188 66.507812 C 70.621094 66.605469 71.402344 67.484375 71.402344 68.558594 L 71.402344 80.179688 C 71.402344 80.960938 71.597656 81.742188 71.792969 82.425781 L 67.007812 82.425781 C 67.300781 81.742188 67.496094 80.960938 67.496094 80.179688 Z M 48.265625 82.230469 L 48.265625 45.125 L 55.195312 50.300781 L 55.097656 80.179688 C 55.097656 80.960938 55.292969 81.742188 55.488281 82.425781 L 48.265625 82.425781 C 48.265625 82.328125 48.265625 82.328125 48.265625 82.230469 Z M 44.359375 39.265625 C 42.503906 39.753906 38.40625 40.242188 32.15625 38.777344 C 28.738281 37.996094 25.910156 37.703125 23.566406 37.703125 C 21.710938 37.703125 20.148438 37.898438 18.976562 38.09375 L 18.976562 20.8125 C 22.882812 19.835938 26.59375 20.324219 33.914062 21.886719 C 38.699219 22.863281 42.113281 22.667969 44.359375 22.179688 Z M 44.359375 39.265625 " fill-opacity="1" fill-rule="nonzero"/></g><path fill="#ffffff" d="M 66.914062 106.835938 L 61.347656 99.804688 C 60.957031 99.316406 60.371094 99.023438 59.785156 99.023438 L 44.359375 99.023438 C 43.285156 99.023438 42.40625 99.902344 42.40625 100.976562 C 42.40625 102.050781 43.285156 102.929688 44.359375 102.929688 L 58.90625 102.929688 L 64.472656 109.960938 C 64.863281 110.449219 65.449219 110.742188 66.035156 110.742188 L 83.410156 110.742188 C 84.484375 110.742188 85.363281 109.863281 85.363281 108.789062 C 85.363281 107.714844 84.484375 106.835938 83.410156 106.835938 Z M 66.914062 106.835938 " fill-opacity="1" fill-rule="nonzero"/></svg>