<svg xmlns="http://www.w3.org/2000/svg" xmlns:xlink="http://www.w3.org/1999/xlink" width="170" zoomAndPan="magnify" viewBox="0 0 127.5 127.499994" height="170" preserveAspectRatio="xMidYMid meet" version="1.0"><defs><clipPath id="id1"><path d="M 1 71 L 63 71 L 63 126.347656 L 1 126.347656 Z M 1 71 " clip-rule="nonzero"/></clipPath><clipPath id="id2"><path d="M 65 71 L 127 71 L 127 126.347656 L 65 126.347656 Z M 65 71 " clip-rule="nonzero"/></clipPath><clipPath id="id3"><path d="M 44 1.097656 L 92 1.097656 L 92 70 L 44 70 Z M 44 1.097656 " clip-rule="nonzero"/></clipPath></defs><path fill="#ffffff" d="M 95.1875 43.402344 C 101.753906 50.046875 106.261719 58.742188 107.632812 68.414062 C 109.101562 68.707031 110.476562 69.292969 111.847656 70.464844 C 110.769531 57.082031 104.105469 45.257812 94.207031 37.246094 C 95.1875 39.59375 95.480469 41.644531 95.1875 43.402344 Z M 95.1875 43.402344 " fill-opacity="1" fill-rule="nonzero"/><path fill="#ffffff" d="M 40.496094 37.148438 C 40.496094 35.585938 40.59375 34.023438 40.59375 32.558594 C 26.972656 40.179688 17.367188 54.148438 16.09375 70.464844 C 17.367188 69.292969 18.835938 68.707031 20.308594 68.414062 C 22.070312 55.222656 29.714844 43.988281 40.496094 37.148438 Z M 40.496094 37.148438 " fill-opacity="1" fill-rule="nonzero"/><path fill="#ffffff" d="M 63.921875 118.339844 C 58.53125 118.339844 53.335938 117.359375 48.535156 115.601562 C 47.554688 116.578125 46.476562 117.554688 45.398438 118.535156 C 51.082031 120.878906 57.355469 122.246094 63.921875 122.246094 C 70.488281 122.246094 76.761719 120.878906 82.445312 118.535156 C 81.367188 117.554688 80.289062 116.578125 79.308594 115.601562 C 74.507812 117.359375 69.3125 118.339844 63.921875 118.339844 Z M 63.921875 118.339844 " fill-opacity="1" fill-rule="nonzero"/><g clip-path="url(#id1)"><path fill="#ffffff" d="M 60.195312 96.648438 C 60.195312 95.183594 59.609375 93.816406 58.628906 92.742188 C 58.335938 92.449219 57.941406 92.15625 57.550781 91.960938 L 60.394531 89.320312 C 61.472656 88.34375 62.058594 86.976562 62.058594 85.609375 C 62.058594 84.144531 61.472656 82.777344 60.492188 81.699219 C 60 81.210938 59.511719 80.917969 58.921875 80.625 C 59.804688 79.648438 60.296875 78.476562 60.296875 77.109375 C 60.296875 75.644531 59.707031 74.277344 58.726562 73.199219 C 56.570312 71.050781 53.140625 71.050781 50.984375 73.101562 L 49.417969 74.667969 C 49.121094 74.082031 48.730469 73.496094 48.238281 73.003906 C 46.082031 70.953125 42.652344 70.855469 40.496094 72.90625 L 27.363281 85.414062 L 28.441406 78.964844 C 28.738281 77.5 28.34375 75.9375 27.363281 74.667969 C 26.1875 73.199219 24.425781 72.222656 22.5625 72.125 C 16.976562 71.832031 15.996094 78.183594 15.703125 80.527344 C 15.210938 84.046875 14.035156 86.195312 11.976562 88.832031 C 9.722656 91.863281 5.605469 97.429688 7.078125 105.539062 C 7.078125 105.734375 6.980469 106.027344 6.882812 106.125 L 1.882812 110.035156 C 1 110.71875 0.902344 111.890625 1.589844 112.769531 C 2.273438 113.550781 3.449219 113.746094 4.332031 113.0625 L 9.332031 109.152344 C 10.605469 108.175781 11.292969 106.417969 10.996094 104.757812 C 9.917969 98.796875 12.566406 94.597656 15.210938 91.078125 C 17.464844 88.050781 19.035156 85.316406 19.621094 81.015625 C 20.40625 75.839844 21.679688 75.839844 22.464844 75.9375 C 23.445312 76.035156 24.914062 77.011719 24.621094 78.183594 L 22.855469 88.34375 C 22.464844 90.394531 23.542969 91.277344 24.03125 91.472656 C 24.523438 91.765625 25.796875 92.15625 27.363281 90.6875 L 43.144531 75.644531 C 43.730469 75.058594 44.808594 75.15625 45.398438 75.742188 C 45.886719 76.230469 46.28125 77.402344 45.691406 77.988281 L 30.402344 92.644531 C 29.617188 93.425781 29.617188 94.597656 30.304688 95.378906 C 30.992188 96.160156 32.265625 96.160156 33.050781 95.476562 L 53.628906 75.9375 C 54.21875 75.351562 55.199219 75.351562 55.882812 76.035156 C 56.472656 76.621094 56.472656 77.5 55.882812 78.085938 L 35.304688 97.625 C 34.519531 98.40625 34.519531 99.578125 35.203125 100.363281 C 35.890625 101.144531 37.164062 101.144531 37.949219 100.460938 L 55.199219 84.144531 C 55.785156 83.753906 56.863281 83.949219 57.550781 84.535156 C 58.140625 85.121094 58.140625 86 57.550781 86.585938 L 40.398438 102.609375 C 39.617188 103.390625 39.617188 104.5625 40.300781 105.34375 C 41.085938 106.125 42.261719 106.125 43.046875 105.441406 L 53.53125 95.476562 C 54.121094 94.890625 55.199219 94.988281 55.785156 95.574219 C 56.375 96.160156 56.375 97.039062 55.785156 97.625 C 55.785156 97.625 38.4375 114.527344 35.304688 116.285156 C 32.753906 117.847656 29.421875 118.632812 25.503906 118.828125 C 24.03125 118.925781 22.367188 119.609375 21.484375 120.585938 L 19.328125 122.929688 C 18.542969 123.710938 18.640625 124.980469 19.425781 125.664062 C 20.210938 126.347656 21.484375 126.347656 22.171875 125.566406 L 24.328125 123.320312 C 24.523438 123.125 25.304688 122.832031 25.699219 122.734375 C 30.304688 122.539062 34.226562 121.5625 37.359375 119.707031 C 40.890625 117.652344 58.53125 100.460938 58.53125 100.460938 C 59.609375 99.480469 60.195312 98.113281 60.195312 96.648438 Z M 60.195312 96.648438 " fill-opacity="1" fill-rule="nonzero"/></g><g clip-path="url(#id2)"><path fill="#ffffff" d="M 125.863281 110.132812 L 120.863281 106.222656 C 120.765625 106.125 120.667969 105.734375 120.667969 105.636719 C 122.136719 97.527344 118.019531 91.960938 115.765625 88.929688 C 113.808594 86.195312 112.632812 84.144531 112.042969 80.625 C 111.652344 78.28125 110.769531 71.929688 105.183594 72.222656 C 103.320312 72.320312 101.554688 73.296875 100.378906 74.765625 C 99.398438 76.035156 99.007812 77.597656 99.300781 79.0625 L 100.378906 85.511719 L 87.34375 72.90625 C 85.1875 70.855469 81.757812 70.953125 79.601562 73.003906 C 79.113281 73.496094 78.71875 73.984375 78.425781 74.667969 L 76.859375 73.101562 C 74.703125 71.050781 71.273438 71.148438 69.117188 73.199219 C 68.039062 74.277344 67.449219 75.644531 67.546875 77.109375 C 67.546875 78.378906 68.039062 79.648438 68.917969 80.625 C 68.332031 80.917969 67.839844 81.210938 67.351562 81.699219 C 66.273438 82.777344 65.683594 84.144531 65.785156 85.609375 C 65.785156 87.074219 66.371094 88.34375 67.449219 89.320312 L 70.292969 91.960938 C 69.898438 92.15625 69.507812 92.449219 69.214844 92.742188 C 68.136719 93.816406 67.546875 95.183594 67.644531 96.648438 C 67.644531 98.113281 68.234375 99.382812 69.3125 100.363281 C 69.3125 100.363281 86.953125 117.457031 90.480469 119.609375 C 93.617188 121.464844 97.539062 122.441406 102.144531 122.636719 C 102.535156 122.636719 103.320312 122.929688 103.515625 123.222656 L 105.671875 125.46875 C 106.457031 126.25 107.632812 126.25 108.417969 125.566406 C 109.199219 124.785156 109.199219 123.613281 108.515625 122.832031 L 106.359375 120.488281 C 105.378906 119.511719 103.710938 118.828125 102.339844 118.730469 C 98.417969 118.632812 95.1875 117.75 92.539062 116.1875 C 89.402344 114.332031 72.054688 97.527344 72.054688 97.527344 C 71.46875 96.941406 71.566406 96.0625 72.054688 95.476562 C 72.644531 94.890625 73.722656 94.792969 74.308594 95.378906 L 84.796875 105.34375 C 85.582031 106.125 86.855469 106.027344 87.539062 105.246094 C 88.324219 104.464844 88.226562 103.195312 87.441406 102.511719 L 70.195312 86.488281 C 69.605469 85.902344 69.703125 85.023438 70.195312 84.4375 C 70.78125 83.851562 71.859375 83.65625 72.546875 84.046875 L 89.796875 100.363281 C 90.578125 101.144531 91.851562 101.046875 92.539062 100.265625 C 93.324219 99.480469 93.226562 98.210938 92.441406 97.527344 L 71.859375 77.988281 C 71.273438 77.402344 71.371094 76.523438 71.859375 75.9375 C 72.449219 75.351562 73.527344 75.253906 74.113281 75.839844 L 94.695312 95.378906 C 95.480469 96.160156 96.753906 96.0625 97.441406 95.28125 C 98.125 94.5 98.125 93.230469 97.339844 92.546875 L 82.152344 78.085938 C 81.5625 77.5 81.953125 76.328125 82.445312 75.839844 C 83.03125 75.253906 84.109375 75.15625 84.699219 75.742188 L 100.476562 90.785156 C 102.046875 92.253906 103.320312 91.765625 103.808594 91.570312 C 104.300781 91.277344 105.378906 90.492188 104.984375 88.441406 L 103.222656 78.28125 C 103.027344 77.109375 104.398438 76.132812 105.378906 76.035156 C 106.0625 76.035156 107.4375 75.9375 108.21875 81.113281 C 108.808594 85.414062 110.375 88.148438 112.628906 91.175781 C 115.179688 94.695312 117.921875 98.894531 116.84375 104.855469 C 116.550781 106.515625 117.238281 108.273438 118.511719 109.253906 L 123.507812 113.160156 C 124.390625 113.84375 125.664062 113.648438 126.253906 112.867188 C 126.941406 111.988281 126.742188 110.816406 125.863281 110.132812 Z M 125.863281 110.132812 " fill-opacity="1" fill-rule="nonzero"/></g><g clip-path="url(#id3)"><path fill="#ffffff" d="M 45.886719 54.441406 C 46.867188 55.519531 48.238281 56.007812 49.710938 56.105469 C 50.199219 56.105469 50.59375 56.007812 50.984375 55.910156 L 50.886719 59.035156 C 50.886719 60.5 51.375 61.867188 52.453125 62.84375 C 53.433594 63.917969 54.804688 64.40625 56.277344 64.507812 C 56.863281 64.507812 57.453125 64.40625 58.039062 64.210938 C 58.039062 65.582031 58.53125 66.949219 59.609375 67.925781 C 60.589844 69 61.960938 69.488281 63.429688 69.585938 C 66.371094 69.585938 68.820312 67.144531 68.917969 64.210938 L 68.917969 63.039062 C 69.507812 63.234375 70.195312 63.332031 70.878906 63.332031 C 73.820312 63.332031 76.269531 60.890625 76.367188 57.960938 L 76.664062 41.058594 C 76.664062 41.058594 80.484375 45.257812 80.484375 45.257812 C 82.835938 47.800781 86.660156 48.289062 89.402344 45.84375 C 93.519531 42.132812 89.695312 36.953125 88.226562 35 C 86.070312 32.167969 85.386719 29.628906 84.894531 26.402344 C 84.503906 22.789062 83.425781 15.851562 76.664062 11.066406 C 76.464844 10.96875 76.367188 10.574219 76.269531 10.476562 L 77.152344 3.738281 C 77.25 2.664062 76.5625 1.683594 75.484375 1.585938 C 74.40625 1.390625 73.429688 2.175781 73.328125 3.25 L 72.449219 9.988281 C 72.25 11.554688 73.035156 13.3125 74.40625 14.289062 C 79.40625 17.804688 80.484375 22.691406 81.171875 27.085938 C 81.757812 30.898438 82.640625 33.925781 85.1875 37.441406 C 87.933594 41.253906 87.640625 42.425781 86.855469 43.109375 C 86.167969 43.792969 84.40625 44.085938 83.816406 43.109375 L 77.742188 36.269531 C 76.5625 34.609375 75.289062 34.804688 74.703125 35 C 74.210938 35.195312 72.9375 35.78125 72.9375 37.835938 L 72.546875 57.765625 C 72.546875 58.644531 71.859375 59.328125 70.976562 59.328125 C 70.195312 59.328125 69.117188 58.742188 69.117188 57.863281 C 69.117188 57.863281 69.117188 57.765625 69.117188 57.765625 L 69.507812 36.5625 C 69.507812 35.488281 68.625 34.609375 67.546875 34.609375 C 66.46875 34.609375 65.585938 35.488281 65.585938 36.5625 L 65.097656 64.113281 C 65.097656 64.996094 64.410156 65.679688 63.527344 65.679688 C 62.746094 65.679688 62.058594 64.996094 62.058594 64.210938 L 62.550781 36.660156 C 62.550781 35.585938 61.667969 34.707031 60.589844 34.707031 C 59.511719 34.707031 58.628906 35.585938 58.628906 36.660156 L 58.238281 59.328125 C 58.140625 60.011719 57.160156 60.695312 56.375 60.695312 C 55.589844 60.695312 54.90625 60.011719 54.90625 59.230469 L 55.492188 36.5625 C 55.492188 35.488281 54.609375 34.609375 53.53125 34.609375 C 52.453125 34.609375 51.574219 35.488281 51.574219 36.5625 C 51.574219 36.5625 51.277344 50.632812 51.277344 50.925781 C 51.277344 51.511719 51.082031 52.390625 49.710938 52.390625 C 48.925781 52.390625 48.238281 51.707031 48.238281 50.828125 C 48.238281 44.378906 48.238281 26.890625 49.21875 22.984375 C 49.90625 20.054688 51.671875 17.121094 54.21875 14.289062 C 55.199219 13.214844 55.882812 11.554688 55.785156 10.183594 L 55.785156 3.054688 C 55.785156 1.980469 54.804688 1.097656 53.828125 1.097656 C 52.75 1.097656 51.867188 1.980469 51.867188 3.054688 L 51.964844 10.085938 C 51.964844 10.378906 51.671875 11.164062 51.375 11.457031 C 48.339844 14.777344 46.28125 18.292969 45.398438 21.8125 C 44.125 26.890625 44.222656 48.191406 44.320312 50.535156 C 44.320312 52 44.808594 53.367188 45.886719 54.441406 Z M 45.886719 54.441406 " fill-opacity="1" fill-rule="nonzero"/></g></svg>